<?xml version="1.0" encoding="utf-8"?>
<!-- Generator: Adobe Illustrator 16.0.0, SVG Export Plug-In . SVG Version: 6.00 Build 0)  -->
<!DOCTYPE svg PUBLIC "-//W3C//DTD SVG 1.1//EN" "http://www.w3.org/Graphics/SVG/1.1/DTD/svg11.dtd">
<svg version="1.1" id="Layer_2" xmlns="http://www.w3.org/2000/svg" xmlns:xlink="http://www.w3.org/1999/xlink" x="0px" y="0px"
	 width="440px" height="499px" viewBox="0 0 440 499" enable-background="new 0 0 440 499" xml:space="preserve">
<g>
	<path fill="#FFFFFF" d="M354.209,22.031c-8.06-5.595-35.229,6.384-53.991,17.637c4.263,8.89,6.524,16.268,6.757,17.041
		c0.038,0.129,0.071,0.259,0.098,0.388c3.326,0.012,6.652,0.399,9.859,1.206c7.071,1.778,13.343,6.478,17.623,12.984
		c6.543-2.534,20.512-7.295,33.675-7.586C367.229,51.223,363.567,28.524,354.209,22.031z"/>
	<path fill="#FFFFFF" d="M346.643,114.372c1.098-0.227,2.722-0.869,4.133-3.816c2.562-5.349,1.177-7.73,0.722-8.513
		c-1.961-3.372-7.373-5.234-11.566-6.131c-0.646,4.188-2.052,8.234-4.231,11.892c-0.461,0.774-0.935,1.517-1.414,2.242
		C337.811,112.423,342.957,115.133,346.643,114.372z"/>
	<path fill="#FFFFFF" d="M268.396,62.919c-2.485,0.553-4.431,2.484-5.948,5.905c-1.851,4.174-2.062,7.514-0.626,9.924
		c1.794,3.013,5.964,4.711,9.387,5.577c0.786-4.006,2.205-8.233,4.609-12.453c1.149-2.017,2.699-3.865,4.545-5.529
		C276.828,64.167,272.139,62.084,268.396,62.919z"/>
	<path fill="#FFFFFF" d="M222.386,339.938c26.702-1.044,32.904-25.515,34.345-36.421c-2.6,0.243-5.224,0.47-7.9,0.665
		c-10.89,0.792-21.421,1.087-31.059,1.087c-14.612,0-27.168-0.677-35.817-1.322C185.094,336.798,219.223,339.73,222.386,339.938z"/>
	<path fill="#FFFFFF" d="M334.242,393.873c7.337-1.502,23.387-5.922,29.913-16.683c3.576-5.895,3.782-12.856,0.632-21.283
		l-0.895-2.393l1.596-1.995c0.236-0.304,6.162-8.07,2.087-16.984c-2.014-4.405-13.351-6.018-20.375-5.708l-2.431,0.104l-1.423-1.976
		c-1.193-1.662-3.096-3.476-5.482-5.364l-20.09,21.671C325.575,364.412,331.783,385.316,334.242,393.873z"/>
	<path fill="#FFFFFF" d="M124.268,311.518c2.144-0.19,5.721-0.958,5.587-3.959c-0.084-1.905-1.792-4.725-5.189-4.725
		c-3.66,0-5.684,3.411-5.684,5.77c0,0.594,0.122,1.421,0.701,1.988C120.474,311.365,122.143,311.709,124.268,311.518z"/>
	<path fill="#FFFFFF" d="M346.716,152.518c-0.36,0-0.718-0.007-1.074-0.022c-12.587-0.539-24.353-19.016-29.249-27.802
		c-1.672,0.529-3.396,0.902-5.174,1.109c-1.124,0.131-2.243,0.193-3.353,0.193c-14.06,0-26.721-9.904-31.736-14.392
		c-7.968,3.011-30.836,9.689-52.376-2.704c-10.554-6.072-13.109-21.989-7.01-43.67c1.678-5.963,4.101-12.456,7.073-18.884
		c-35.213-1.51-74.124,6.15-74.523,6.23l-2.029,0.405l-1.629-1.277c-5.723-4.489-19.568-10.887-34.453-15.922
		c-17.091-5.782-26.791-6.938-29.252-6.328C69.763,42.57,64.227,59.734,65.474,80.48c0.52,8.65,2.158,16.116,3.546,21.136
		l4.798-4.798c1.758-1.757,4.606-1.757,6.364,0c1.757,1.757,1.757,4.607,0,6.364l-9.539,9.539
		c-13.558,24.529-19.963,47.992-19.219,70.183c11.495,0.415,19.156,1.576,19.769,1.671c2.455,0.383,4.134,2.683,3.752,5.138
		c-0.382,2.455-2.681,4.133-5.137,3.755c-0.14-0.021-7.085-1.068-17.68-1.499c1.137,9.169,3.535,18.109,7.197,26.803
		c4.064-0.669,8.289-1.138,12.534-1.271c2.475-0.075,4.561,1.873,4.639,4.357c0.078,2.484-1.874,4.561-4.357,4.639
		c-2.942,0.092-5.889,0.37-8.781,0.771c0.318,0.604,0.627,1.21,0.958,1.812c4.466,8.121,9.613,15.047,14.595,20.748
		c4.319-1.767,8.706-3.383,13.042-4.779c2.364-0.76,4.901,0.539,5.663,2.905c0.761,2.365-0.539,4.901-2.905,5.663
		c-3.11,1.001-6.17,2.093-9.157,3.245c5.725,5.619,10.61,9.353,13.095,11.127c3.254-6.652,8.372-11.211,15.007-13.285
		c2.108-0.659,4.199-0.993,6.213-0.993c11.542,0,17.833,10.489,20.323,17.48c3.145-1.145,7.587-2.542,12.335-2.542
		c6.261,0,14.766,2.477,19.721,14.273c1.737,4.136,2.37,7.932,2.242,11.354c23.321,2.229,143.44,10.916,184.993-41.087
		c0.46-0.575,0.909-1.156,1.354-1.739c-3.043-0.841-6.024-1.54-8.837-2.014c-2.451-0.414-4.103-2.735-3.689-5.186
		c0.414-2.451,2.739-4.099,5.186-3.689c4.052,0.684,8.367,1.764,12.707,3.065c4.907-7.984,8.583-16.648,11.019-25.959
		c-3.529-0.259-6.997-0.418-10.224-0.418c-2.485,0-4.5-2.015-4.5-4.5s2.015-4.5,4.5-4.5c3.852,0,7.98,0.205,12.139,0.534
		c1.418-8.283,1.929-17.029,1.531-26.217c-7.2,0.712-14.274,1.882-20.356,3.738c-0.438,0.133-0.88,0.197-1.315,0.197
		c-1.928,0-3.711-1.248-4.302-3.188c-0.726-2.377,0.613-4.892,2.99-5.617c6.766-2.064,14.519-3.349,22.324-4.119
		c-1.464-13.983-4.689-25.593-6.877-32.273C364.5,148.454,355.054,152.518,346.716,152.518z M127.668,218.998
		c-13.897,0.539-16-31.637,1.351-31.636C144.11,187.363,144.554,218.345,127.668,218.998z M218.622,248c-0.001,0-0.002,0-0.003,0
		c-12.608,0-21.565-6.938-21.784-16.985c-0.073-3.377,1.171-6.432,3.598-8.913c3.676-3.757,9.896-5.891,17.065-5.891
		c7.308,0,14.003,2.353,17.909,6.278c2.694,2.707,4.109,6.038,4.093,9.778C239.459,241.428,230.679,248,218.622,248z
		 M301.668,218.998c-13.896,0.539-16-31.637,1.352-31.636C318.11,187.363,318.555,218.345,301.668,218.998z"/>
	<path fill="#FFFFFF" d="M103.527,318.741l-4.861,6.868c-1.159,1.676-6.525,10.522,3.331,17.764c2.757,2.025,5.539,3.01,8.504,3.01
		c9.229,0,17.269-9.736,17.348-9.835l2.952-3.693l3.543,3.131c0.044,0.038,5.858,5.019,12.792,5.019
		c4.601-0.001,8.668-2.154,12.436-6.585c7.124-8.378-3.003-21.503-3.106-21.634l-3.274-4.179l4.65-2.555
		c1.166-0.658,11.457-6.916,6.111-19.642c-3.298-7.852-8.099-8.76-11.423-8.76c-3.997,0-8.08,1.546-10.782,2.569
		c-1.955,0.74-3.135,1.187-4.443,1.187c-2.626,0-4.716-1.979-4.825-4.534c-0.263-1.859-4.076-14.16-12.608-14.16
		c-1.103,0-2.29,0.196-3.529,0.583c-12.642,3.951-12.512,21.126-12.509,21.3l0.066,4.091l-4.067,0.454
		c-0.211,0.023-21.706,2.77-21.008,13.228c1.017,15.26,14.719,16.09,16.278,16.134L103.527,318.741z M124.667,293.834
		c6.536,0,13.815,5.095,14.18,13.326c0.266,5.998-3.892,12.443-13.782,13.322c-0.655,0.059-1.303,0.088-1.926,0.088
		c-5.066,0-8.1-1.93-9.752-3.549c-2.195-2.149-3.404-5.14-3.404-8.418C109.983,301.471,115.883,293.834,124.667,293.834z"/>
	<path fill="#FFFFFF" d="M217.499,225.232c-4.554,0-8.727,1.258-10.633,3.206c-0.735,0.751-1.054,1.429-1.033,2.382
		c0.142,6.534,8.426,8.18,12.787,8.18c0,0,0.001,0,0.002,0c5.744,0,11.858-2.319,11.879-6.769c0.006-1.349-0.461-2.408-1.471-3.423
		C226.843,226.611,222.316,225.232,217.499,225.232z"/>
	<path fill="#FFFFFF" d="M297.681,299.139c5.653,8.944,11.341,21.533,16.523,34.736l16.218-17.493
		C320.097,309.811,306.489,303.137,297.681,299.139z"/>
	<path fill="#FFFFFF" d="M346.026,143.503c7.902,0.349,18.122-5.065,26.673-14.104c11.421-12.071,17.398-27.819,15.989-42.125
		c-0.563-5.725-2.764-9.63-6.725-11.941c-10.74-6.267-32.238-0.221-43.47,4.064c0.811,2.415,1.359,4.885,1.635,7.368
		c5.479,0.941,14.952,3.568,19.135,10.729c1.941,3.325,3.453,8.964-0.371,16.949c-2.899,6.054-7.284,8.098-10.452,8.747
		c-1.021,0.209-2.054,0.304-3.085,0.304c-6.446,0-12.891-3.7-16.761-6.42c-1.334,1.329-2.72,2.515-4.158,3.548
		C330.287,130.961,339.67,143.232,346.026,143.503z"/>
	<path fill="#FFFFFF" d="M228.242,101.1c17.007,9.786,35.727,5.159,43.386,2.538c-0.602-2.564-1.187-6.119-1.236-10.25
		c-4.855-1.027-12.456-3.61-16.282-9.999c-3.037-5.07-3-11.198,0.111-18.212c3.391-7.647,8.533-10.229,12.25-11.049
		c8.843-1.95,18.021,3.854,22.1,6.914c2.905-1.339,6.073-2.375,9.379-3.043c-4.156-12.917-17.275-42.372-34.736-42.832
		c-0.066-0.002-0.135-0.003-0.201-0.003c-11.556,0-30.108,25.858-37.604,52.504C220.658,84.55,221.744,97.361,228.242,101.1z"/>
	<path fill="#FFFFFF" d="M131.956,345.308c-0.422,0.408-0.895,0.844-1.397,1.291c0.649,1.008,1.269,2.074,1.829,3.236
		c9.891,16.868,26.51,40.928,35.306,43.437c0.34,0.043,1.59-0.259,2.958-1.27c1.337-0.987,1.916-1.987,2.031-2.357
		c-1.246-3.993-12.91-21.365-23.652-36.112c-0.778-1.068-1.002-2.362-0.753-3.562c-0.378,0.019-0.758,0.033-1.139,0.033
		C140.785,350.004,135.322,347.401,131.956,345.308z"/>
	<path fill="#FFFFFF" d="M279.75,89.9c-0.541,6.598,0.75,11.965,1.381,13.954c3.082,2.915,16.204,14.535,29.135,13.007
		c6.867-0.81,12.813-5.407,17.734-13.665c3.973-6.667,4.462-15.146,1.334-22.68c-2.85-6.865-8.309-11.906-14.59-13.486
		c-10.435-2.626-26.049,0.864-30.854,9.297C281.242,80.976,280,85.675,280,89.877c0,0.003,0,0.007,0,0.011
		C280,89.893,279.75,89.896,279.75,89.9z"/>
	<path fill="#FFFFFF" d="M96.669,350.627c-8.014-5.889-9.982-13.019-9.401-19.154c-0.229,0.015-0.458,0.027-0.694,0.006
		c-3.989-0.39-9.399,6.045-11.114,16.214c-4.374,25.93,15.729,40.412,34.273,44.935c6.206,1.517,10.756,0.005,13.909-4.613
		c5.835-8.546,5.146-24.732,0.742-34.065c-0.493-0.836-0.896-1.53-1.212-2.078c-3.645,2.001-7.956,3.513-12.671,3.513
		C105.619,355.383,100.965,353.783,96.669,350.627z"/>
	<path fill="#FFFFFF" d="M222.49,348.85l-0.188-0.014l-0.188-0.01c-0.479-0.022-46.473-2.599-49.275-45.664
		c-0.186-0.019-0.371-0.037-0.542-0.055c-1.6,3.331-3.869,6.029-6.15,8.021c1.062,1.805,2.259,4.129,3.207,6.753
		c3.141,8.69,2.129,16.425-2.924,22.368c-3.06,3.598-6.515,6.238-10.237,7.858c0.036,0.045,0.079,0.079,0.113,0.126
		c3.869,5.311,23.261,32.163,25.13,39.291c0.879,3.352-0.436,7.056-3.608,10.162c-2.347,2.298-6.148,4.59-10.051,4.59
		c-0.85,0-1.705-0.109-2.55-0.35c-7.258-2.069-16.439-11.221-28.069-27.976c-0.106-0.153-0.212-0.306-0.318-0.459
		c-0.31,7.207-2.107,14.242-5.763,19.597c-4.441,6.504-11.039,9.604-18.872,9.012c-0.611,3.238-1.427,8.2-1.991,14.06
		c32.567,9.955,89.039,8.746,104.795,8.183l-0.073-4.901c-0.037-2.485,1.948-4.441,4.432-4.441c0.023,0,0.046,0,0.068,0
		c2.454,0,4.462,1.887,4.498,4.348l0.081,5.462c12.545,1.659,55.289,5.414,106.22-11.094c-0.535-3.623-1.28-6.955-2.205-9.823
		l-0.315,0.038l-1.033-3.732c-0.058-0.208-5.848-21.063-13.91-44.192c-9.78-28.054-18.697-47.539-25.93-56.711
		c-6.653,1.287-13.64,2.372-20.96,3.25c-0.485,4.535-1.784,12.266-5.261,20.145C253.331,339.209,240.146,348.241,222.49,348.85z"/>
	<path fill="#FFFFFF" d="M109.617,425.367c-0.542,17.21,2.213,37.818,16.587,46.816c29.404,18.407,76.945,9.184,89.61,6.258
		l-0.673-45.087C198.958,433.962,143.998,435.169,109.617,425.367z"/>
	<path fill="#FFFFFF" d="M224.15,433.933l0.667,44.756c12.129,3.395,56.494,13.636,89.45-7.163
		c13.214-8.34,17.615-30.171,16.824-48.633c-31.887,10.088-60.241,12.596-80.516,12.596
		C238.683,435.488,229.568,434.628,224.15,433.933z"/>
	<g>
		<path d="M123.139,320.57c0.623,0,1.271-0.029,1.926-0.088c9.89-0.879,14.048-7.324,13.782-13.322
			c-0.365-8.231-7.645-13.326-14.18-13.326c-8.783,0-14.684,7.637-14.684,14.77c0,3.278,1.209,6.269,3.404,8.418
			C115.039,318.641,118.073,320.57,123.139,320.57z M124.667,302.834c3.397,0,5.104,2.819,5.189,4.725
			c0.133,3.001-3.443,3.769-5.587,3.959c-2.125,0.191-3.794-0.152-4.584-0.926c-0.58-0.567-0.701-1.395-0.701-1.988
			C118.983,306.245,121.007,302.834,124.667,302.834z"/>
		<path d="M217.499,216.212c-7.169,0-13.389,2.134-17.065,5.891c-2.427,2.48-3.671,5.536-3.598,8.913
			c0.218,10.047,9.176,16.985,21.784,16.985c0.001,0,0.002,0,0.003,0c12.057,0,20.837-6.572,20.879-15.732
			c0.017-3.74-1.398-7.071-4.093-9.778C231.502,218.565,224.807,216.212,217.499,216.212z M218.622,239c-0.001,0-0.002,0-0.002,0
			c-4.361,0-12.645-1.646-12.787-8.18c-0.021-0.953,0.298-1.631,1.033-2.382c1.906-1.947,6.079-3.206,10.633-3.206
			c4.817,0,9.344,1.379,11.531,3.576c1.01,1.015,1.477,2.074,1.471,3.423C230.48,236.681,224.366,239,218.622,239z"/>
		<path d="M129.02,187.362c-17.351-0.001-15.249,32.175-1.351,31.636C144.554,218.345,144.11,187.363,129.02,187.362z"/>
		<path d="M303.02,187.362c-17.352-0.001-15.248,32.175-1.352,31.636C318.555,218.345,318.11,187.363,303.02,187.362z"/>
		<path d="M426.412,173.519c-1.108-0.102-18.324-1.636-37.426-0.617c-1.888-18.376-6.574-32.704-8.699-38.482
			c12.489-13.79,18.973-31.624,17.358-48.027c-0.855-8.685-4.608-15.023-11.155-18.839c-2.757-1.606-5.883-2.627-9.205-3.219
			c-0.289-3.966-0.947-10.719-2.397-18.095c-3.146-15.995-8.378-26.628-15.548-31.604c-7.672-5.324-21.155-3.508-41.218,5.552
			c-9.145,4.129-17.392,8.762-22.095,11.53c-7.276-12.544-18.153-25.17-32.578-25.549c-0.144-0.004-0.286-0.005-0.431-0.005
			c-12.611,0-25.457,14.506-34.817,31.502c-0.302-0.083-0.615-0.14-0.94-0.159c-32.994-1.913-68.964,4.235-77.762,5.868
			c-8.985-6.272-25.569-12.903-37.624-16.848c-30.232-9.892-34.531-5.332-36.15-3.615c-30.272,32.115-17.203,76.58-13.659,86.718
			c-15.136,27.847-20.089,52.355-19.483,73.127c-9.776,0.035-21.253,0.722-33.114,2.81c-2.448,0.431-4.083,2.765-3.652,5.212
			c0.385,2.184,2.284,3.721,4.427,3.721c0.259,0,0.521-0.022,0.785-0.069c11.462-2.017,22.672-2.643,32.182-2.643
			c1.183,10.764,3.827,20.387,7.173,28.808c-12.749,3.083-22.312,7.368-22.909,7.638c-2.264,1.025-3.267,3.692-2.241,5.956
			c0.752,1.661,2.389,2.644,4.102,2.644c0.621,0,1.252-0.129,1.854-0.402c0.143-0.064,10.094-4.523,22.925-7.455
			c0.757,1.53,1.53,3.012,2.316,4.441c4.271,7.765,9.087,14.492,13.845,20.185c-13.319,6.209-25.112,13.536-31.459,19.882
			c-1.757,1.757-1.757,4.606,0,6.363c0.879,0.879,2.03,1.318,3.182,1.318s2.303-0.439,3.182-1.318
			c5.27-5.271,16.963-12.769,31.381-19.239c10.01,10.397,18.452,15.827,19.029,16.192c0.031,0.02,0.064,0.032,0.095,0.051
			c-0.298,1.463-0.494,2.808-0.62,3.956c-2.7,0.534-6.514,1.474-10.318,3.032c-13.018,5.334-15.292,13.345-14.906,19.126
			c0.701,10.507,5.775,16.822,11.545,20.415c-7.057,2.73-12.867,11.332-14.804,22.813c-1.874,11.109,0.248,22.391,5.973,31.766
			c6.347,10.393,16.958,18.018,30.824,22.241c-2.849,14.656-9.643,62.277,18.047,79.61c34.771,21.764,89.222,9.269,98.636,6.873
			c5.018,1.566,22.971,6.651,44.625,6.65c17.338-0.001,37.051-3.262,54.381-14.199c17.764-11.211,22.564-38.968,20.722-60.798
			c0.391-0.968,0.466-2.067,0.102-3.132c-0.133-0.389-0.328-0.733-0.548-1.058c-0.544-4.252-1.344-8.191-2.35-11.646
			c9.008-1.941,26.758-7.327,34.839-20.618c4.704-7.737,5.425-16.784,2.152-26.92c2.46-4.105,6.65-13.502,1.773-24.172
			c-4.518-9.882-20.409-10.963-26.645-10.996c-8.153-9.146-27.941-19.511-40.882-25.683c26.199-7.786,45.717-19.581,58.282-35.306
			c1.179-1.475,2.31-2.981,3.4-4.515c15.532,5.38,30.09,12.744,30.292,12.848c0.654,0.332,1.351,0.49,2.037,0.49
			c1.64,0,3.22-0.899,4.015-2.461c1.127-2.215,0.245-4.924-1.97-6.05c-0.815-0.415-14.211-7.192-29.361-12.611
			c5.009-8.61,8.776-17.986,11.262-27.997c14.015,1.578,26.689,4.08,26.874,4.117c0.297,0.059,0.592,0.087,0.884,0.087
			c2.103,0,3.982-1.481,4.408-3.623c0.485-2.437-1.097-4.806-3.534-5.292c-0.757-0.15-12.927-2.553-26.791-4.147
			c1.485-8.846,2.026-18.125,1.609-27.752c18.626-0.96,35.685,0.555,35.947,0.579c2.47,0.233,4.665-1.595,4.892-4.069
			C430.708,175.937,428.887,173.747,426.412,173.519z M388.688,87.274c1.409,14.307-4.568,30.054-15.989,42.125
			c-8.551,9.038-18.771,14.452-26.673,14.104c-6.356-0.271-15.739-12.542-21.59-22.88c1.438-1.033,2.824-2.219,4.158-3.548
			c3.87,2.72,10.314,6.42,16.761,6.42c1.031,0,2.064-0.095,3.085-0.304c3.168-0.649,7.553-2.693,10.452-8.747
			c3.824-7.985,2.312-13.624,0.371-16.949c-4.183-7.162-13.655-9.788-19.135-10.729c-0.275-2.483-0.824-4.954-1.635-7.368
			c11.231-4.285,32.729-10.331,43.47-4.064C385.925,77.644,388.125,81.55,388.688,87.274z M275.817,71.872
			c-2.404,4.22-3.823,8.447-4.609,12.453c-3.423-0.865-7.593-2.563-9.387-5.577c-1.436-2.411-1.225-5.75,0.626-9.924
			c1.518-3.421,3.463-5.353,5.948-5.905c3.743-0.835,8.433,1.249,11.967,3.424C278.517,68.007,276.967,69.855,275.817,71.872z
			 M279.75,89.9c0-0.004,0.25-0.008,0.25-0.012c0-0.003,0-0.007,0-0.011c0-4.203,1.238-8.901,3.887-13.549
			c4.805-8.433,20.539-11.923,30.974-9.297c6.281,1.58,11.671,6.621,14.521,13.486c3.128,7.534,2.592,16.013-1.381,22.68
			c-4.921,8.257-10.914,12.855-17.781,13.665c-12.931,1.528-25.998-10.092-29.08-13.007C280.508,101.865,279.209,96.499,279.75,89.9
			z M351.497,102.043c0.455,0.783,1.841,3.164-0.722,8.513c-1.411,2.947-3.035,3.589-4.133,3.816
			c-3.686,0.761-8.832-1.949-12.357-4.327c0.479-0.725,0.953-1.468,1.414-2.242c2.18-3.657,3.586-7.704,4.231-11.892
			C344.124,96.809,349.536,98.671,351.497,102.043z M354.209,22.031c9.358,6.493,13.02,29.192,14.021,41.669
			c-13.163,0.291-27.132,5.053-33.675,7.586c-4.28-6.506-10.552-11.206-17.623-12.984c-3.207-0.807-6.533-1.194-9.859-1.206
			c-0.026-0.129-0.06-0.259-0.098-0.388c-0.232-0.772-2.494-8.15-6.757-17.041C318.98,28.415,346.149,16.436,354.209,22.031z
			 M263.012,15.163c0.066,0,0.135,0.001,0.201,0.003c17.461,0.459,30.58,29.915,34.736,42.832c-3.306,0.669-6.474,1.704-9.379,3.043
			c-4.078-3.061-13.257-8.864-22.1-6.914c-3.717,0.82-8.859,3.402-12.25,11.049c-3.111,7.015-3.148,13.142-0.111,18.212
			c3.826,6.389,11.427,8.972,16.282,9.999c0.05,4.131,0.635,7.686,1.236,10.25c-7.659,2.622-26.379,7.249-43.386-2.538
			c-6.498-3.739-7.584-16.549-2.835-33.432C232.903,41.021,251.456,15.163,263.012,15.163z M78.824,302.367
			c-0.698-10.458,20.797-13.204,21.008-13.228l4.067-0.454l-0.066-4.091c-0.003-0.174-0.133-17.349,12.509-21.3
			c1.239-0.387,2.426-0.583,3.529-0.583c8.533,0,12.345,12.301,12.608,14.16c0.109,2.556,2.199,4.534,4.825,4.534
			c1.309,0,2.488-0.446,4.443-1.187c2.702-1.023,6.785-2.569,10.782-2.569c3.324,0,8.125,0.908,11.423,8.76
			c5.346,12.726-4.945,18.983-6.111,19.642l-4.65,2.555l3.274,4.179c0.103,0.131,10.23,13.256,3.106,21.634
			c-3.768,4.431-7.835,6.584-12.436,6.585c-6.934,0-12.748-4.98-12.792-5.019l-3.543-3.131l-2.952,3.693
			c-0.079,0.099-8.119,9.835-17.348,9.835c-2.965,0-5.747-0.984-8.504-3.01c-9.856-7.241-4.49-16.088-3.331-17.764l4.861-6.868
			l-8.425-0.24C93.543,318.457,79.841,317.627,78.824,302.367z M149.03,353.532c10.742,14.747,22.406,32.119,23.652,36.112
			c-0.115,0.37-0.694,1.37-2.031,2.357c-1.368,1.011-2.618,1.312-2.958,1.27c-8.796-2.509-25.415-26.568-35.306-43.437
			c-0.56-1.162-1.179-2.229-1.829-3.236c0.502-0.447,0.975-0.883,1.397-1.291c3.367,2.094,8.829,4.696,15.182,4.696
			c0.381,0,0.761-0.015,1.139-0.033C148.027,351.17,148.251,352.464,149.03,353.532z M75.46,347.692
			c1.715-10.169,7.125-16.604,11.114-16.214c0.235,0.021,0.465,0.009,0.694-0.006c-0.581,6.136,1.387,13.266,9.401,19.154
			c4.296,3.156,8.95,4.756,13.833,4.756c4.715,0,9.026-1.512,12.671-3.513c0.316,0.548,0.72,1.242,1.212,2.078
			c4.403,9.333,5.093,25.52-0.742,34.065c-3.153,4.618-7.704,6.13-13.909,4.613C91.189,388.104,71.086,373.622,75.46,347.692z
			 M126.204,472.184c-14.374-8.998-17.129-29.606-16.587-46.816c34.38,9.802,89.341,8.595,105.524,7.987l0.673,45.087
			C203.149,481.367,155.608,490.591,126.204,472.184z M314.268,471.525c-32.956,20.799-77.321,10.558-89.45,7.163l-0.667-44.756
			c5.418,0.695,14.532,1.556,26.426,1.556c20.274,0,48.629-2.508,80.516-12.596C331.883,441.354,327.481,463.186,314.268,471.525z
			 M344.77,328.932l2.431-0.104c7.024-0.31,18.361,1.303,20.375,5.708c4.075,8.914-1.851,16.681-2.087,16.984l-1.596,1.995
			l0.895,2.393c3.15,8.427,2.944,15.389-0.632,21.283c-6.526,10.761-22.576,15.181-29.913,16.683
			c-2.459-8.557-8.667-29.461-16.468-50.61l20.09-21.671c2.387,1.889,4.289,3.702,5.482,5.364L344.77,328.932z M330.422,316.382
			l-16.218,17.493c-5.183-13.203-10.87-25.792-16.523-34.736C306.489,303.137,320.097,309.811,330.422,316.382z M312.77,356.006
			c8.062,23.129,13.853,43.984,13.91,44.192l1.033,3.732l0.315-0.038c0.925,2.868,1.67,6.2,2.205,9.823
			c-50.931,16.508-93.675,12.753-106.22,11.094l-0.081-5.462c-0.036-2.461-2.044-4.348-4.498-4.348c-0.022,0-0.045,0-0.068,0
			c-2.484,0-4.469,1.956-4.432,4.441l0.073,4.901c-15.756,0.563-72.229,1.772-104.795-8.183c0.564-5.859,1.38-10.821,1.991-14.06
			c7.833,0.592,14.431-2.508,18.872-9.012c3.656-5.354,5.453-12.39,5.763-19.597c0.105,0.153,0.211,0.306,0.318,0.459
			c11.63,16.755,20.812,25.906,28.069,27.976c0.846,0.24,1.7,0.35,2.55,0.35c3.902,0,7.704-2.292,10.051-4.59
			c3.172-3.106,4.487-6.811,3.608-10.162c-1.869-7.128-21.262-33.98-25.13-39.291c-0.034-0.047-0.077-0.081-0.113-0.126
			c3.722-1.62,7.177-4.261,10.237-7.858c5.053-5.943,6.064-13.678,2.924-22.368c-0.948-2.624-2.145-4.948-3.207-6.753
			c2.281-1.991,4.55-4.689,6.15-8.021c0.171,0.018,0.357,0.036,0.542,0.055c2.802,43.065,48.797,45.642,49.275,45.664l0.188,0.01
			l0.188,0.014c17.656-0.608,30.841-9.641,38.129-26.16c3.477-7.879,4.775-15.609,5.261-20.145c7.32-0.878,14.307-1.963,20.96-3.25
			C294.072,308.467,302.989,327.952,312.77,356.006z M181.954,303.946c8.649,0.646,21.205,1.322,35.817,1.322
			c9.638,0,20.169-0.295,31.059-1.087c2.677-0.195,5.301-0.422,7.9-0.665c-1.44,10.906-7.643,35.377-34.345,36.421
			C219.223,339.73,185.094,336.798,181.954,303.946z M379.139,208.784c-4.158-0.329-8.287-0.534-12.139-0.534
			c-2.485,0-4.5,2.015-4.5,4.5s2.015,4.5,4.5,4.5c3.227,0,6.694,0.159,10.224,0.418c-2.436,9.311-6.111,17.975-11.019,25.959
			c-4.34-1.302-8.655-2.382-12.707-3.065c-2.446-0.41-4.771,1.238-5.186,3.689c-0.413,2.451,1.238,4.772,3.689,5.186
			c2.812,0.474,5.794,1.173,8.837,2.014c-0.444,0.583-0.894,1.164-1.354,1.739c-41.553,52.003-161.672,43.315-184.993,41.087
			c0.128-3.422-0.504-7.218-2.242-11.354c-4.956-11.797-13.46-14.273-19.721-14.273c-4.748,0-9.19,1.397-12.335,2.542
			c-2.491-6.991-8.781-17.48-20.323-17.48c-2.014,0-4.105,0.334-6.213,0.993c-6.635,2.074-11.753,6.632-15.007,13.285
			c-2.485-1.774-7.37-5.508-13.095-11.127c2.987-1.152,6.047-2.244,9.157-3.245c2.366-0.762,3.666-3.297,2.905-5.663
			c-0.762-2.366-3.299-3.665-5.663-2.905c-4.335,1.396-8.722,3.012-13.042,4.779c-4.982-5.7-10.129-12.627-14.595-20.748
			c-0.331-0.602-0.64-1.208-0.958-1.812c2.892-0.401,5.839-0.679,8.781-0.771c2.484-0.078,4.435-2.155,4.357-4.639
			c-0.078-2.484-2.164-4.433-4.639-4.357c-4.245,0.133-8.47,0.602-12.534,1.271c-3.663-8.694-6.06-17.634-7.197-26.803
			c10.595,0.43,17.541,1.477,17.68,1.499c2.457,0.378,4.755-1.301,5.137-3.755c0.382-2.455-1.298-4.755-3.752-5.138
			c-0.613-0.095-8.273-1.257-19.769-1.671c-0.744-22.191,5.661-45.654,19.219-70.183l9.539-9.539c1.757-1.757,1.757-4.607,0-6.364
			c-1.758-1.757-4.606-1.757-6.364,0l-4.798,4.798c-1.389-5.02-3.027-12.485-3.546-21.136c-1.247-20.746,4.29-37.91,16.457-51.025
			c2.462-0.61,12.161,0.546,29.252,6.328c14.885,5.035,28.73,11.434,34.453,15.922l1.629,1.277l2.029-0.405
			c0.399-0.08,39.311-7.741,74.523-6.23c-2.973,6.428-5.396,12.921-7.073,18.884c-6.099,21.681-3.544,37.598,7.01,43.67
			c21.54,12.393,44.408,5.715,52.376,2.704c5.016,4.488,17.677,14.393,31.736,14.392c1.109,0,2.229-0.062,3.353-0.193
			c1.777-0.207,3.502-0.581,5.174-1.109c4.896,8.786,16.662,27.263,29.249,27.802c0.356,0.015,0.714,0.022,1.074,0.022
			c8.338,0,17.784-4.064,26.418-11.214c2.188,6.681,5.413,18.29,6.877,32.273c-7.806,0.77-15.559,2.055-22.324,4.119
			c-2.377,0.725-3.716,3.24-2.99,5.617c0.591,1.94,2.374,3.188,4.302,3.188c0.436,0,0.878-0.063,1.315-0.197
			c6.082-1.855,13.156-3.026,20.356-3.738C381.067,191.754,380.557,200.501,379.139,208.784z"/>
	</g>
</g>
</svg>
