<?xml version="1.0" encoding="utf-8"?>
<!-- Generator: Adobe Illustrator 16.0.0, SVG Export Plug-In . SVG Version: 6.00 Build 0)  -->
<!DOCTYPE svg PUBLIC "-//W3C//DTD SVG 1.1//EN" "http://www.w3.org/Graphics/SVG/1.1/DTD/svg11.dtd">
<svg version="1.1" id="Layer_1" xmlns="http://www.w3.org/2000/svg" xmlns:xlink="http://www.w3.org/1999/xlink" x="0px" y="0px"
	 width="670px" height="726px" viewBox="0 0 670 726" enable-background="new 0 0 670 726" xml:space="preserve">
<g>
	<path fill="#FFFFFF" d="M461.334,367.801c-8.973,0-17.218-2.173-24.506-6.458c-15.538-9.134-24.654-26.572-25.668-49.102
		c-0.152-3.383-0.097-6.829,0.121-10.311c-2.387,0.47-4.925,0.908-7.622,1.323c-5.722,0.876-12.13,1.645-19.104,2.315
		c-13.946,1.335-30.154,2.305-47.546,2.792c-8.699,0.236-17.685,0.359-26.873,0.234c-4.602-0.071-9.232-0.188-14.013-0.509
		c-1.2-0.083-2.408-0.179-3.661-0.312l-0.949-0.107l-0.995-0.13l-1.745-0.263l-6.8-1.022c-36.282-5.386-72.76-9.667-100.081-11.292
		c-6.828-0.413-13.081-0.669-18.601-0.748c-0.156-0.002-0.306-0.003-0.461-0.005l-15.966,32.448
		c-6.695,25.86-12.921,62.39-3.906,81.14c0.258,0.536,0.454,1.086,0.609,1.64c4.325,3.789,8.556,7.911,12.688,12.314
		c5.659,6.021,11.222,12.509,16.686,19.412c5.459,6.905,10.854,14.205,16,21.971c5.172,7.748,10.221,15.873,15.015,24.44
		c2.405,4.281,4.729,8.677,6.943,13.226c0.567,1.126,1.102,2.284,1.647,3.436l0.817,1.732l0.813,1.812
		c0.543,1.211,1.103,2.448,1.55,3.545l0.714,1.698l0.179,0.426l0.139,0.333l0.092,0.239l0.368,0.958
		c4.044,10.197,6.465,21.008,7.351,32.107c0.212,2.789,0.339,5.58,0.319,8.493l-0.016,1.111l-0.038,1.215l-0.03,0.588
		c-0.078,1.067-0.041,0.443-0.067,0.748l-0.034,0.258l-0.137,1.03c-0.191,1.374-0.35,2.747-0.572,4.124
		c-0.005,0.035-0.013,0.07-0.019,0.104l1.618-2.303c0.312,0.219,31.753,21.995,78.264,33.422
		c27.099,6.658,53.972,8.556,79.872,5.637c32.282-3.636,63.219-14.821,91.95-33.244c26.218-16.812,62.42-53.829,79.947-95.375
		c18.038-42.756,17.381-90.264,17.372-90.739l-0.009-0.496c-15.269-10.685-44.942-27.378-59.959-35.67
		C496.859,359.795,478.589,367.801,461.334,367.801z M210.2,468.973c-15.744,0.269-29.041-30.738-29.697-69.255
		c-0.656-38.516,11.577-69.957,27.322-70.226c15.744-0.268,29.042,30.738,29.696,69.254
		C238.177,437.263,225.946,468.706,210.2,468.973z M255,512c-6.351,0-11.5-5.148-11.5-11.5S248.649,489,255,489
		s11.5,5.148,11.5,11.5S261.351,512,255,512z M305,469c-15.188,0-27.5-31.229-27.5-69.75c0-38.522,12.312-69.75,27.5-69.75
		s27.5,31.228,27.5,69.75C332.5,437.771,320.188,469,305,469z"/>
	<path fill="#FFFFFF" d="M205.196,557.25l-0.01-0.699l-0.021-0.803c-0.073-2.19-0.266-4.481-0.529-6.743
		c-1.108-9.09-3.448-17.977-6.95-26.002l-0.318-0.758l-0.079-0.189c-0.035-0.084,0.032,0.079-0.043-0.09l-0.193-0.419l-0.771-1.675
		c-0.521-1.159-1.01-2.135-1.501-3.138l-0.737-1.505l-0.795-1.547c-0.531-1.03-1.046-2.06-1.604-3.078
		c-2.159-4.092-4.474-8.097-6.792-12.045c-4.661-7.89-9.598-15.436-14.631-22.604c-10.086-14.324-20.482-27.246-30.911-38.071
		c-10.466-10.753-20.62-19.762-30.056-26.038c-2.368-1.559-4.674-2.915-6.932-4.093l-0.211-0.114l-0.105-0.058
		c-0.244-0.105,0.217,0.079,0.121,0.038l-0.507-0.233l-1.007-0.464l-0.998-0.459c-0.319-0.144-0.698-0.331-0.925-0.414
		c-0.518-0.216-1.031-0.43-1.54-0.642l-0.766-0.322l-0.83-0.293c-4.399-1.606-8.566-2.476-12.443-2.775
		c-7.757-0.573-14.28,0.778-18.7,1.825c-2.216,0.561-3.922,1.041-5.077,1.396c-0.671,0.201-1.151,0.345-1.438,0.43
		c-0.034,0.018-0.068,0.035-0.103,0.052c-0.126,0.058-0.292,0.146-0.492,0.259c-0.778,0.426-2.037,1.182-3.622,2.398
		c-3.159,2.425-7.624,6.805-11.647,13.872c-2.011,3.524-3.899,7.702-5.483,12.504c-1.58,4.804-2.781,10.25-3.606,16.196
		c-0.466,2.965-0.641,6.093-0.899,9.3c-0.093,3.234-0.264,6.556-0.15,10c-0.027,3.432,0.283,6.977,0.458,10.599
		c0.177,1.813,0.356,3.648,0.538,5.503c0.097,0.928,0.167,1.861,0.287,2.799c0.129,0.938,0.258,1.88,0.389,2.827
		c0.912,7.588,2.52,15.456,4.336,23.56c0.51,2.018,1.023,4.053,1.542,6.104c0.524,2.051,1.016,4.126,1.639,6.191
		c0.593,2.071,1.191,4.158,1.794,6.261l0.452,1.58l0.113,0.396l0.049,0.17c0.013,0.04,0.033,0.103,0.035,0.11l0.258,0.8
		c0.344,1.068,0.689,2.14,1.036,3.215c0.693,2.149,1.391,4.314,2.094,6.493c0.756,2.07,1.518,4.155,2.283,6.253
		c0.382,1.049,0.765,2.102,1.149,3.156c0.436,1.046,0.872,2.094,1.31,3.146c0.892,2.096,1.739,4.229,2.677,6.326
		c3.775,8.376,8.158,16.644,13.355,24.436c5.208,7.769,11.278,15.055,18.401,21.06l2.753,2.126l1.378,1.065l1.443,0.958
		c0.968,0.63,1.919,1.292,2.897,1.903l3.012,1.691c4.07,2.142,8.337,3.88,12.771,5.075c8.884,2.349,18.367,2.415,27.64,0.548
		c4.643-0.905,9.22-2.354,13.693-4.108c4.755-2.037,9.516-4.077,14.276-6.116c4.588-2.022,8.876-4.173,12.778-6.715
		c3.918-2.516,7.419-5.42,10.491-8.67c3.033-3.283,5.665-6.889,7.784-10.835c2.121-3.944,3.79-8.174,5.056-12.579
		c1.261-4.407,2.154-8.975,2.696-13.628c0.142-1.162,0.225-2.341,0.343-3.506l0.083-0.875l0.01-0.105l0.001-0.069L205.196,557.25z"
		/>
	<path fill="#FFFFFF" d="M180.137,236.49c0.193-0.739,0.373-1.514,0.546-2.295c0.345-1.562,0.541-3.272,0.561-5.113
		c0-1.842-0.303-3.811-0.403-5.981c-0.144-2.164-0.197-4.501-0.243-6.991c-0.043-4.981,0.193-10.583,0.876-16.668
		c0.169-1.521,0.373-3.071,0.622-4.648c0.209-1.581,0.521-3.181,0.838-4.809c0.265-1.635,0.712-3.274,1.073-4.953
		c0.456-1.661,0.861-3.365,1.39-5.066c2.113-6.789,5.113-13.904,9.891-20.446l0.884-1.233c0.308-0.404,0.647-0.788,0.971-1.184
		c0.661-0.782,1.307-1.583,1.995-2.356c1.461-1.472,2.877-3.022,4.535-4.349c1.56-1.44,3.36-2.6,5.116-3.838
		c0.899-0.584,1.851-1.09,2.782-1.637l1.409-0.804l1.467-0.687c0.982-0.45,1.964-0.916,2.959-1.348
		c1.02-0.357,2.042-0.716,3.065-1.075c0.514-0.171,1.024-0.364,1.542-0.516l1.568-0.399l3.149-0.783l3.183-0.504
		c1.062-0.167,2.126-0.35,3.189-0.4l3.191-0.231l0.798-0.053l0.2-0.065l0.355-0.058h0.367l1.466,0.049
		c8.552-0.055,17.023,1.592,24.85,4.519c3.906,1.481,7.654,3.292,11.17,5.387c3.498,2.126,6.79,4.494,9.804,7.088
		c2.975,2.639,5.723,5.435,8.129,8.413c2.366,3.002,4.54,6.067,6.256,9.281c3.599,6.342,5.704,12.965,6.963,19.122
		c1.235,6.183,1.47,11.956,1.312,17.01c-0.12,5.076-0.942,9.399-1.507,12.959c-0.536,2.914-0.812,5.357-1.024,7.221
		c6.158,0.652,12.282,1.467,18.323,2.351c3.998,0.653,7.968,1.293,11.874,2.023c3.897,0.77,7.762,1.472,11.524,2.345
		c7.559,1.601,14.782,3.52,21.618,5.395c6.809,1.976,13.224,3.939,19.073,5.991c5.858,2.024,11.185,4.022,15.862,5.931
		c4.702,1.848,8.673,3.773,12.142,4.978c1.733,0.603,3.339,1.047,4.753,1.428c0.529,0.128,1.017,0.258,1.488,0.378
		c2.115-4.713,4.504-9.379,7.19-13.95c13.081-22.25,31.043-39.348,49.911-48.518c-38.407-38.983-113.538-95.402-188.423-95.402
		c-0.247,0-0.486,0-0.732,0.002c-51.092,0.251-86.831,13.746-106.224,40.109c-24.161,32.845-16.395,76.968-13.226,90.459
		c0.006-0.001,0.018-0.004,0.023-0.005l0.663,2.756c0.219,0.822,0.358,1.289,0.373,1.336l-0.047,0.015l0.419,1.741
		c1.867-0.442,4.559-1.08,7.971-1.888C180.039,236.513,180.089,236.501,180.137,236.49z"/>
	<path fill="#FFFFFF" d="M150.883,194.418c-2.985-0.725-11.566-2.482-21.371-1.537c-15.297,1.471-26.515,8.68-33.342,21.424
		c-9.476,17.688-5.204,36.745-2.105,45.957c21.068-10.927,45.535-18.975,61.058-23.507
		C153.291,229.219,150.175,213.289,150.883,194.418z"/>
	<path fill="#FFFFFF" d="M520.005,339.548c15.134,8.385,41.082,23.078,56.395,33.528c21.292-45.396,25.909-80.204,13.305-100.874
		c-8.044-13.19-21.546-18.18-30.183-20.065c-0.501,19.448-6.828,40.375-18.167,59.662
		C535.186,322.293,527.929,331.637,520.005,339.548z"/>
	<path fill="#FFFFFF" d="M443.077,254.026c-11.094,18.872-16.753,39.291-15.934,57.496c0.763,16.936,7.081,29.731,17.793,36.028
		c4.798,2.82,10.314,4.25,16.397,4.25c22.695,0,49.311-19.333,66.228-48.11c11.095-18.872,16.753-39.292,15.934-57.497
		c-0.762-16.937-7.081-29.732-17.794-36.03c-4.797-2.82-10.312-4.25-16.395-4.25C486.61,205.916,459.995,225.25,443.077,254.026z"/>
	<path fill="#FFFFFF" d="M489.605,578.176c5.172,13.564,20.642,48.021,46.749,55.916c15.342,4.643,32.7-0.836,51.58-16.283
		c9.475-7.752,23.059-31.497,33.803-59.087c12.121-31.124,18.778-61.205,18.265-82.529l-0.02-0.845
		c-0.612-25.719-1.453-60.741-51.688-74.728c-1.423,18.915-5.628,49.346-17.923,78.489
		C552.669,521.067,517.234,558.746,489.605,578.176z"/>
	<path fill="#FFFFFF" d="M297.623,220.081c0.165-0.791,0.323-1.629,0.473-2.51c0.077-0.44,0.155-0.89,0.236-1.351
		c0.052-0.463,0.105-0.936,0.16-1.418c0.108-0.965,0.221-1.969,0.337-3.011c0.053-1.043,0.107-2.124,0.164-3.241
		c0.148-4.46-0.16-9.503-1.329-14.811c-1.143-5.304-3.208-10.867-6.421-16.134c-1.538-2.674-3.478-5.194-5.554-7.663
		c-2.112-2.45-4.537-4.708-7.121-6.846c-2.629-2.092-5.485-3.978-8.5-5.664c-3.033-1.661-6.261-3.028-9.575-4.209
		c-3.318-1.184-6.792-1.978-10.293-2.564c-0.879-0.125-1.754-0.296-2.639-0.389l-2.657-0.26c-0.877-0.075-1.7-0.076-2.552-0.125
		c-0.44-0.011-0.806-0.056-1.307-0.043l-1.466,0.022l-1.466,0.076L237.749,150h-0.018c0.004,0,0.015,0,0.006,0l-0.166-0.039
		l-0.664,0.031l-2.654,0.196c-0.893,0.032-1.753,0.184-2.618,0.32l-2.595,0.396l-2.522,0.595l-1.262,0.289
		c-0.414,0.113-0.812,0.263-1.22,0.391c-0.812,0.264-1.619,0.536-2.436,0.781l-2.342,0.965l-1.169,0.482l-1.111,0.587
		c-0.735,0.399-1.497,0.753-2.213,1.18c-1.394,0.912-2.824,1.764-4.108,2.815c-1.366,0.946-2.54,2.122-3.782,3.209
		c-0.583,0.585-1.136,1.202-1.707,1.796c-0.28,0.303-0.575,0.591-0.844,0.903l-0.775,0.965c-2.139,2.51-3.874,5.331-5.459,8.165
		c-0.754,1.446-1.494,2.882-2.1,4.375c-0.675,1.457-1.201,2.968-1.752,4.446c-2.131,5.955-3.217,11.972-3.771,17.543
		c-0.555,5.583-0.482,10.764-0.122,15.302c0.172,2.271,0.439,4.385,0.744,6.321c0.129,0.973,0.312,1.892,0.472,2.772
		c0.143,0.883,0.338,1.715,0.64,2.476c0.55,1.541,1.381,2.819,2.282,3.856c0.782,0.881,1.621,1.462,2.4,1.932
		c1.182-0.196,2.384-0.396,3.625-0.601c1.244-0.206,2.525-0.417,3.825-0.633c-1.728-1.801-6.197-6.685-5.669-8.486
		c2.585-8.832,11.335-62.082,22.335-60c3.931,0.744,18.652,27.316,22.5,17.333c4.214-10.934,12.379-25.838,16.498-20.667
		c10.752,13.501,19.137,43.116,20.667,56.667c0.415,3.678-6.352,8.462-12.058,10.247c2.083,0.004,4.177,0.029,6.278,0.12
		c2.022,0.061,4.053,0.122,6.09,0.184c2.038,0.047,4.075,0.224,6.12,0.33c2.044,0.124,4.093,0.247,6.144,0.371l1.21,0.108
		c0.155-0.26,0.321-0.547,0.502-0.878C295.837,225.604,296.849,223.235,297.623,220.081z"/>
	<path fill="#FFFFFF" d="M143.146,285.318c1.581-0.137,3.384-0.333,5.385-0.451c4.14-0.3,9.122-0.437,14.818-0.476
		c5.696-0.034,12.092,0.1,19.05,0.379c27.836,1.092,64.615,4.664,101.25,9.344l6.865,0.891l1.668,0.217l0.714,0.078l0.763,0.07
		c1.032,0.089,2.113,0.152,3.201,0.206c4.371,0.203,8.873,0.228,13.328,0.204c8.929-0.063,17.771-0.367,26.314-0.777
		c17.09-0.833,33.027-2.123,46.533-3.7c6.751-0.79,12.896-1.66,18.241-2.593c2.671-0.468,5.144-0.95,7.381-1.446
		c1.997-0.319,3.639-1.408,5.055-2.329c0.751-3.389,1.646-6.788,2.708-10.185c-0.58-0.753-1.403-1.436-2.376-2.259
		c-1.048-0.868-2.29-1.821-3.766-2.742c-2.951-1.841-6.829-3.51-11.268-5.458c-4.44-1.944-9.523-3.998-15.129-6.093
		c-5.597-2.124-11.757-4.177-18.304-6.258c-6.577-1.981-13.538-4.021-20.839-5.759c-3.633-0.941-7.369-1.715-11.14-2.56
		c-3.778-0.805-7.623-1.524-11.497-2.258c-7.771-1.329-15.693-2.591-23.672-3.385l-5.978-0.634c-1.997-0.154-3.991-0.307-5.982-0.46
		c-1.992-0.137-3.977-0.344-5.962-0.422c-1.985-0.093-3.964-0.186-5.936-0.277c-3.942-0.239-7.86-0.234-11.73-0.309
		c-3.871-0.117-7.693,0.024-11.455,0.066c-3.764,0.008-7.457,0.238-11.074,0.409c-1.809,0.092-3.598,0.184-5.365,0.273
		c-1.764,0.148-3.506,0.294-5.225,0.439c-6.885,0.494-13.348,1.409-19.332,2.106c-2.976,0.466-5.827,0.913-8.54,1.337
		c-1.356,0.212-2.678,0.419-3.962,0.621c-1.282,0.216-2.518,0.479-3.721,0.705c-2.403,0.465-4.653,0.9-6.732,1.302
		c-1.04,0.203-2.037,0.398-2.99,0.584c-0.945,0.221-1.847,0.432-2.703,0.631c-4.791,1.126-8.138,1.913-9.72,2.284
		c-25.514,6.369-88.521,26.415-102.569,50.29c-1.939,3.296-2.774,6.452-2.521,9.573c0.645,0.141,1.404,0.271,2.26,0.392
		C89.122,288.713,121.295,285.27,143.146,285.318z"/>
	<path fill="#FFFFFF" d="M255,207.999c-2.554-2.331-5.901,8.967-9,10.501c-1.897,0.939-6.526,0.374-8.454-0.501
		c-3.691-1.675-10.886-12.116-12.215-10.667c-0.419,0.457-0.096,5.133-0.957,10.043c-0.85,4.848-2.387,9.98-3.052,12.092
		c2.497-0.295,5.035-0.574,7.654-0.785c1.756-0.171,3.537-0.346,5.339-0.521c1.807-0.123,3.636-0.247,5.484-0.372
		c3.699-0.237,7.477-0.534,11.329-0.608c3.568-0.1,7.194-0.277,10.862-0.262C257.882,223.946,258.041,210.774,255,207.999z"/>
	<g>
		<path d="M655.998,475.808l-0.021-0.84c-0.618-25.997-1.77-74.378-66.97-90.711c0.001-0.144,0.003-0.305,0.003-0.437
			c25.669-53.121,30.5-93.471,14.354-119.947c-12.562-20.601-34.023-26.501-44.909-28.191c-2.9-17.778-11.443-31.548-24.646-39.31
			c-7.287-4.284-15.532-6.457-24.503-6.457c-4.481,0-9.031,0.54-13.595,1.58c-23.601-25.157-54.199-49.686-84.682-67.782
			c-42.16-25.03-82.608-37.715-120.246-37.715c-0.273,0-0.551,0-0.824,0.002c-56.429,0.278-96.478,15.966-119.033,46.628
			c-11.121,15.118-16.538,31.925-18.792,47.72c-4.788-1.006-13.516-2.335-23.454-1.45c-20.213,1.798-35.723,11.756-44.852,28.796
			c-12.982,24.232-6.04,49.32-2.139,59.62c-10.624,6.695-19.429,14.231-24.298,22.503c-4.454,7.566-5.623,15.323-3.476,23.056
			c0.605,2.18,1.886,3.778,3.826,4.979c8.282,10.956,44.369,14.217,67.024,15.177c-0.639,2.834-1.263,5.769-1.854,8.779
			c-3.89,19.787-5.198,36.682-3.968,50.586c-2.753-1.412-5.565-2.632-8.35-3.724l-0.824-0.33l-0.529-0.178l-1.051-0.353l-1.042-0.35
			c-0.36-0.119-0.646-0.224-1.107-0.356c-0.847-0.248-1.687-0.494-2.518-0.738c-0.414-0.117-0.826-0.233-1.236-0.348
			c-0.396-0.092-0.79-0.184-1.182-0.275c-6.253-1.478-12.256-2.087-17.578-1.943c-5.329,0.128-9.962,0.758-13.858,1.549
			c-3.885,0.829-7.077,1.662-9.618,2.426c-2.534,0.755-4.448,1.366-5.711,1.809c-1.271,0.433-1.928,0.657-1.928,0.657l-0.446,0.151
			l-0.906,0.425c-0.312,0.148-0.516,0.262-0.819,0.422c-0.304,0.158-0.628,0.34-0.978,0.548c-1.433,0.835-3.382,2.101-5.659,3.951
			c-4.537,3.671-10.38,9.872-15.237,18.972c-2.431,4.531-4.605,9.747-6.344,15.53c-1.733,5.785-2.954,12.136-3.712,18.9
			c-0.429,3.386-0.597,6.867-0.806,10.452c-0.049,3.573-0.161,7.254,0.022,10.997c0.044,3.761,0.434,7.564,0.7,11.478
			c0.223,1.938,0.449,3.9,0.677,5.884c0.121,0.99,0.216,1.991,0.361,2.986c0.153,0.994,0.308,1.992,0.463,2.996
			c0.319,2.006,0.607,4.041,0.964,6.078c0.391,2.028,0.787,4.077,1.186,6.146c0.202,1.032,0.404,2.07,0.607,3.112
			c0.23,1.034,0.461,2.073,0.694,3.117c0.465,2.087,0.935,4.192,1.408,6.315c0.54,2.103,1.085,4.222,1.634,6.358
			c0.555,2.135,1.081,4.298,1.733,6.435c0.625,2.146,1.255,4.31,1.889,6.488l0.477,1.636l0.12,0.41l0.06,0.205l0.103,0.318
			l0.261,0.799c0.349,1.066,0.699,2.136,1.05,3.21c0.703,2.147,1.411,4.311,2.123,6.486c0.821,2.229,1.647,4.47,2.479,6.726
			c0.417,1.128,0.835,2.259,1.254,3.393c0.455,1.11,0.911,2.225,1.368,3.342c0.926,2.229,1.807,4.489,2.788,6.73
			c3.951,8.954,8.594,17.92,14.271,26.577c5.676,8.646,12.51,16.944,20.795,24.175l3.228,2.597l1.625,1.294l1.717,1.195
			c1.154,0.786,2.292,1.599,3.47,2.361l3.648,2.142c4.952,2.73,10.245,4.998,15.788,6.594c11.117,3.121,23.003,3.532,34.316,1.583
			c5.672-0.943,11.194-2.515,16.554-4.446c1.33-0.503,2.664-1.005,3.969-1.554l1.811-0.739l1.709-0.674
			c2.342-0.893,4.886-1.826,7.433-2.835c5.114-2.021,10.369-4.374,15.399-7.375c5.042-2.967,9.848-6.603,14.135-10.807
			c4.256-4.234,8.013-9.009,11.033-14.135c3.027-5.124,5.394-10.534,7.203-16.009c0.297-0.901,0.559-1.807,0.828-2.712
			c10.582,6.656,39.195,23.023,78.591,32.796c20.327,5.042,40.566,7.573,60.447,7.573c8.489,0,16.916-0.462,25.252-1.387
			c31.709-3.518,62.161-13.792,90.672-30.526c6.996,17.396,24.773,53.038,55.856,62.468c5.14,1.56,10.373,2.338,15.694,2.338
			c16.189,0,33.178-7.206,50.695-21.539c11.956-9.781,26.379-34.329,38.581-65.663C649.507,531.506,656.56,499.168,655.998,475.808z
			 M589.704,272.203c12.604,20.67,7.987,55.478-13.305,100.874c-15.312-10.45-41.261-25.143-56.395-33.528
			c7.924-7.911,15.181-17.255,21.35-27.749c11.339-19.288,17.666-40.214,18.167-59.662
			C568.158,254.022,581.66,259.012,589.704,272.203z M525.701,210.165c10.713,6.298,17.032,19.093,17.794,36.03
			c0.819,18.205-4.839,38.625-15.934,57.497c-16.917,28.776-43.532,48.11-66.228,48.11c-6.083,0-11.6-1.43-16.397-4.25
			c-10.712-6.297-17.03-19.092-17.793-36.028c-0.819-18.205,4.84-38.624,15.934-57.496c16.918-28.776,43.533-48.111,66.229-48.111
			C515.389,205.916,520.904,207.345,525.701,210.165z M183.816,142.109c19.393-26.363,55.131-39.857,106.224-40.109
			c0.246-0.001,0.486-0.002,0.732-0.002c74.885,0,150.016,56.419,188.423,95.402c-18.868,9.169-36.83,26.267-49.911,48.518
			c-2.687,4.57-5.075,9.236-7.19,13.95c-0.472-0.121-0.959-0.25-1.488-0.378c-1.414-0.38-3.02-0.825-4.753-1.428
			c-3.469-1.204-7.439-3.13-12.142-4.978c-4.678-1.909-10.004-3.907-15.862-5.931c-5.85-2.052-12.265-4.015-19.073-5.991
			c-6.836-1.875-14.06-3.793-21.618-5.395c-3.763-0.874-7.627-1.576-11.524-2.345c-3.905-0.73-7.876-1.371-11.874-2.023
			c-6.042-0.884-12.165-1.698-18.323-2.351c0.212-1.864,0.488-4.307,1.024-7.221c0.564-3.56,1.387-7.883,1.507-12.959
			c0.158-5.055-0.078-10.828-1.312-17.01c-1.26-6.157-3.365-12.78-6.963-19.122c-1.717-3.213-3.89-6.279-6.256-9.281
			c-2.406-2.978-5.154-5.774-8.129-8.413c-3.014-2.594-6.306-4.962-9.804-7.088c-3.516-2.095-7.264-3.905-11.17-5.387
			c-7.827-2.927-16.298-4.574-24.85-4.519L238.016,138h-0.367l-0.355,0.058l-0.2,0.065l-0.798,0.053l-3.191,0.231
			c-1.063,0.05-2.126,0.233-3.189,0.4l-3.183,0.504l-3.149,0.783l-1.568,0.399c-0.519,0.152-1.029,0.345-1.542,0.516
			c-1.023,0.359-2.045,0.718-3.065,1.075c-0.995,0.432-1.977,0.897-2.959,1.348l-1.467,0.687l-1.409,0.804
			c-0.931,0.547-1.882,1.053-2.782,1.637c-1.756,1.238-3.556,2.398-5.116,3.838c-1.658,1.326-3.073,2.876-4.535,4.349
			c-0.688,0.773-1.334,1.574-1.995,2.356c-0.324,0.396-0.664,0.78-0.971,1.184l-0.884,1.233c-4.778,6.542-7.778,13.657-9.891,20.446
			c-0.529,1.701-0.935,3.405-1.39,5.066c-0.361,1.678-0.808,3.317-1.073,4.953c-0.318,1.627-0.629,3.228-0.838,4.809
			c-0.25,1.577-0.453,3.127-0.622,4.648c-0.684,6.084-0.92,11.687-0.876,16.668c0.046,2.489,0.099,4.827,0.243,6.991
			c0.1,2.17,0.402,4.14,0.403,5.981c-0.02,1.841-0.216,3.551-0.561,5.113c-0.173,0.781-0.353,1.557-0.546,2.295
			c-0.047,0.011-0.098,0.023-0.145,0.034c-3.412,0.808-6.104,1.445-7.971,1.888l-0.419-1.741l0.047-0.015
			c-0.015-0.048-0.153-0.515-0.373-1.336l-0.663-2.756c-0.006,0.001-0.017,0.004-0.023,0.005
			C167.421,219.077,159.655,174.954,183.816,142.109z M259.998,159.999c-4.119-5.172-12.284,9.732-16.498,20.667
			c-3.848,9.983-18.569-16.589-22.5-17.333c-11-2.082-19.75,51.168-22.335,60c-0.527,1.801,3.941,6.685,5.669,8.486
			c-1.3,0.215-2.581,0.427-3.825,0.633c-1.241,0.206-2.443,0.405-3.625,0.601c-0.779-0.47-1.619-1.051-2.4-1.932
			c-0.901-1.037-1.732-2.315-2.282-3.856c-0.301-0.761-0.497-1.593-0.64-2.476c-0.16-0.88-0.343-1.799-0.472-2.772
			c-0.305-1.936-0.572-4.05-0.744-6.321c-0.36-4.538-0.433-9.719,0.122-15.302c0.554-5.571,1.64-11.588,3.771-17.543
			c0.552-1.478,1.077-2.99,1.752-4.446c0.606-1.493,1.346-2.929,2.1-4.375c1.585-2.834,3.32-5.655,5.459-8.165l0.775-0.965
			c0.269-0.312,0.563-0.601,0.844-0.903c0.571-0.595,1.124-1.211,1.707-1.796c1.242-1.087,2.417-2.263,3.782-3.209
			c1.285-1.051,2.714-1.903,4.108-2.815c0.716-0.426,1.478-0.78,2.213-1.18l1.111-0.587l1.169-0.482l2.342-0.965
			c0.817-0.246,1.624-0.518,2.436-0.782c0.407-0.128,0.806-0.278,1.22-0.392l1.262-0.289l2.522-0.597l2.595-0.399
			c0.865-0.136,1.726-0.294,2.618-0.327l2.654-0.209l0.664-0.004l0.166,0.039h0.011l0.366-0.059l1.466-0.049l1.466-0.036
			c0.501-0.013,0.867,0.026,1.307,0.037c0.852,0.048,1.675,0.046,2.552,0.121l2.657,0.258c0.885,0.093,1.759,0.263,2.639,0.388
			c3.501,0.586,6.975,1.379,10.293,2.563c3.313,1.181,6.542,2.548,9.575,4.209c3.014,1.686,5.87,3.572,8.5,5.664
			c2.584,2.138,5.009,4.396,7.121,6.846c2.076,2.469,4.016,4.989,5.554,7.663c3.213,5.267,5.278,10.83,6.421,16.134
			c1.169,5.308,1.477,10.351,1.329,14.811c-0.057,1.117-0.111,2.198-0.164,3.241c-0.117,1.042-0.229,2.046-0.337,3.011
			c-0.054,0.482-0.107,0.955-0.16,1.418c-0.081,0.46-0.159,0.911-0.236,1.351c-0.15,0.881-0.308,1.719-0.473,2.51
			c-0.773,3.154-1.786,5.523-2.672,7.065c-0.181,0.331-0.347,0.618-0.502,0.878l-1.21-0.108c-2.05-0.124-4.099-0.247-6.144-0.371
			c-2.045-0.106-4.082-0.283-6.12-0.33c-2.037-0.062-4.067-0.123-6.09-0.184c-2.102-0.091-4.195-0.116-6.278-0.12
			c5.707-1.785,12.473-6.569,12.058-10.247C279.135,203.114,270.75,173.5,259.998,159.999z M261.992,226.918
			c-3.668-0.015-7.294,0.162-10.862,0.262c-3.853,0.074-7.63,0.371-11.329,0.608c-1.849,0.125-3.678,0.25-5.484,0.372
			c-1.802,0.176-3.583,0.35-5.339,0.521c-2.62,0.211-5.158,0.49-7.654,0.785c0.665-2.111,2.203-7.244,3.052-12.092
			c0.86-4.91,0.537-9.586,0.957-10.043c1.329-1.449,8.523,8.991,12.215,10.667c1.928,0.875,6.556,1.441,8.454,0.501
			c3.099-1.534,6.446-12.833,9-10.501C258.041,210.774,257.882,223.946,261.992,226.918z M96.17,214.306
			c6.828-12.745,18.045-19.953,33.342-21.424c9.804-0.946,18.386,0.812,21.371,1.537c-0.708,18.871,2.407,34.801,4.24,42.338
			c-15.523,4.532-39.99,12.58-61.058,23.507C90.967,251.051,86.694,231.994,96.17,214.306z M69.456,296.922
			c14.049-23.875,77.056-43.921,102.569-50.29c1.582-0.372,4.929-1.158,9.72-2.284c0.856-0.2,1.758-0.411,2.703-0.631
			c0.953-0.186,1.95-0.381,2.99-0.584c2.08-0.402,4.329-0.837,6.732-1.302c1.203-0.226,2.439-0.489,3.721-0.705
			c1.285-0.201,2.606-0.408,3.962-0.621c2.712-0.425,5.564-0.872,8.54-1.337c5.983-0.697,12.446-1.613,19.332-2.106
			c1.719-0.145,3.461-0.291,5.225-0.439c1.768-0.09,3.557-0.181,5.365-0.273c3.618-0.17,7.311-0.401,11.074-0.409
			c3.762-0.042,7.584-0.183,11.455-0.066c3.87,0.074,7.788,0.069,11.73,0.309c1.972,0.092,3.951,0.185,5.936,0.277
			c1.986,0.079,3.97,0.286,5.962,0.422c1.991,0.153,3.985,0.306,5.982,0.46l5.978,0.634c7.979,0.794,15.9,2.057,23.672,3.385
			c3.874,0.734,7.719,1.453,11.497,2.258c3.771,0.845,7.507,1.619,11.14,2.56c7.301,1.738,14.262,3.778,20.839,5.759
			c6.547,2.081,12.707,4.135,18.304,6.258c5.605,2.096,10.688,4.149,15.129,6.093c4.438,1.948,8.316,3.617,11.268,5.458
			c1.476,0.921,2.718,1.874,3.766,2.742c0.973,0.824,1.796,1.506,2.376,2.259c-1.062,3.396-1.957,6.796-2.708,10.185
			c-1.416,0.921-3.058,2.01-5.055,2.329c-2.237,0.496-4.71,0.978-7.381,1.446c-5.346,0.934-11.49,1.803-18.241,2.593
			c-13.506,1.577-29.443,2.867-46.533,3.7c-8.543,0.41-17.385,0.713-26.314,0.777c-4.455,0.024-8.958-0.001-13.328-0.204
			c-1.087-0.053-2.168-0.117-3.201-0.206l-0.763-0.07l-0.714-0.078l-1.668-0.217l-6.865-0.891
			c-36.636-4.68-73.415-8.252-101.25-9.344c-6.958-0.279-13.354-0.413-19.05-0.379c-5.697,0.039-10.679,0.176-14.818,0.476
			c-2.001,0.117-3.804,0.314-5.385,0.451c-21.851-0.048-54.024,3.396-73.951,21.569c-0.856-0.121-1.615-0.251-2.26-0.392
			C66.682,303.374,67.517,300.218,69.456,296.922z M205.104,558.442c-0.118,1.165-0.201,2.344-0.343,3.506
			c-0.542,4.653-1.435,9.221-2.696,13.628c-1.267,4.405-2.936,8.635-5.056,12.579c-2.119,3.946-4.751,7.552-7.784,10.835
			c-3.072,3.25-6.573,6.154-10.491,8.67c-3.902,2.542-8.19,4.692-12.778,6.715c-4.76,2.039-9.521,4.079-14.276,6.116
			c-4.473,1.754-9.05,3.203-13.693,4.108c-9.273,1.867-18.756,1.801-27.64-0.548c-4.434-1.195-8.701-2.934-12.771-5.075
			l-3.012-1.691c-0.979-0.611-1.93-1.273-2.897-1.903l-1.443-0.958l-1.378-1.065l-2.753-2.126
			c-7.124-6.005-13.194-13.291-18.401-21.06c-5.198-7.792-9.581-16.06-13.355-24.436c-0.938-2.097-1.786-4.23-2.677-6.326
			c-0.438-1.052-0.875-2.1-1.31-3.146c-0.384-1.055-0.767-2.107-1.149-3.156c-0.766-2.098-1.527-4.183-2.283-6.253
			c-0.703-2.179-1.401-4.344-2.094-6.493c-0.347-1.075-0.692-2.146-1.036-3.215l-0.258-0.8c-0.002-0.008-0.022-0.07-0.035-0.11
			l-0.049-0.17l-0.113-0.396l-0.452-1.58c-0.603-2.103-1.201-4.189-1.794-6.261c-0.623-2.065-1.115-4.141-1.639-6.191
			c-0.519-2.052-1.032-4.087-1.542-6.104c-1.816-8.104-3.424-15.972-4.336-23.56c-0.13-0.947-0.26-1.89-0.389-2.827
			c-0.121-0.938-0.19-1.871-0.287-2.799c-0.181-1.854-0.36-3.689-0.538-5.503c-0.175-3.622-0.485-7.167-0.458-10.599
			c-0.114-3.444,0.057-6.766,0.15-10c0.258-3.207,0.433-6.335,0.899-9.3c0.825-5.946,2.026-11.393,3.606-16.196
			c1.584-4.802,3.473-8.979,5.483-12.504c4.023-7.067,8.489-11.447,11.647-13.872c1.585-1.217,2.844-1.973,3.622-2.398
			c0.2-0.113,0.366-0.201,0.492-0.259c0.034-0.017,0.069-0.034,0.103-0.052c0.286-0.085,0.766-0.229,1.438-0.43
			c1.155-0.355,2.86-0.836,5.077-1.396c4.42-1.047,10.942-2.398,18.7-1.825c3.877,0.3,8.043,1.169,12.443,2.775l0.83,0.293
			l0.766,0.322c0.508,0.212,1.021,0.426,1.54,0.642c0.227,0.083,0.606,0.271,0.925,0.414l0.998,0.459l1.007,0.464l0.507,0.233
			c0.096,0.041-0.365-0.144-0.121-0.038l0.105,0.058l0.211,0.114c2.257,1.178,4.564,2.534,6.932,4.093
			c9.436,6.276,19.589,15.285,30.056,26.038c10.429,10.825,20.825,23.747,30.911,38.071c5.033,7.169,9.97,14.715,14.631,22.604
			c2.318,3.948,4.633,7.953,6.792,12.045c0.558,1.019,1.074,2.048,1.604,3.078l0.795,1.547l0.737,1.505
			c0.491,1.003,0.981,1.979,1.501,3.138l0.771,1.675l0.193,0.419c0.075,0.169,0.008,0.006,0.043,0.09l0.079,0.189l0.318,0.758
			c3.501,8.025,5.842,16.912,6.95,26.002c0.264,2.262,0.456,4.553,0.529,6.743l0.021,0.803l0.01,0.699l0.002,0.143l-0.001,0.069
			l-0.01,0.105L205.104,558.442z M383.731,601.51c-25.9,2.919-52.773,1.021-79.872-5.637
			c-46.511-11.427-77.952-33.203-78.264-33.422l-1.618,2.303c0.005-0.034,0.013-0.069,0.019-0.104
			c0.223-1.377,0.381-2.75,0.572-4.124l0.137-1.03l0.034-0.258c0.026-0.305-0.011,0.319,0.067-0.748l0.03-0.588l0.038-1.215
			l0.016-1.111c0.02-2.913-0.107-5.704-0.319-8.493c-0.886-11.1-3.307-21.91-7.351-32.107l-0.368-0.958l-0.092-0.239l-0.139-0.333
			l-0.179-0.426l-0.714-1.698c-0.448-1.097-1.007-2.334-1.55-3.545l-0.813-1.812l-0.817-1.732c-0.545-1.151-1.08-2.31-1.647-3.436
			c-2.215-4.549-4.539-8.944-6.943-13.226c-4.794-8.567-9.842-16.692-15.015-24.44c-5.146-7.766-10.541-15.065-16-21.971
			c-5.464-6.903-11.027-13.392-16.686-19.412c-4.132-4.403-8.362-8.525-12.688-12.314c-0.155-0.554-0.351-1.104-0.609-1.64
			c-9.015-18.75-2.789-55.279,3.906-81.14l15.966-32.448c0.155,0.001,0.305,0.003,0.461,0.005c5.52,0.079,11.773,0.335,18.601,0.748
			c27.32,1.624,63.798,5.906,100.081,11.292l6.8,1.022l1.745,0.263l0.995,0.13l0.949,0.107c1.253,0.133,2.46,0.229,3.661,0.312
			c4.781,0.321,9.411,0.438,14.013,0.509c9.188,0.125,18.174,0.002,26.873-0.234c17.392-0.487,33.6-1.458,47.546-2.792
			c6.974-0.67,13.382-1.438,19.104-2.315c2.697-0.415,5.235-0.853,7.622-1.323c-0.218,3.482-0.273,6.928-0.121,10.311
			c1.014,22.53,10.13,39.968,25.668,49.102c7.288,4.285,15.533,6.458,24.506,6.458c17.255,0,35.525-8.006,51.699-21.815
			c15.017,8.292,44.69,24.986,59.959,35.67l0.009,0.496c0.009,0.475,0.666,47.983-17.372,90.739
			c-17.527,41.546-53.729,78.563-79.947,95.375C446.95,586.688,416.014,597.874,383.731,601.51z M621.737,558.722
			c-10.744,27.59-24.328,51.335-33.803,59.087c-18.88,15.447-36.238,20.926-51.58,16.283c-26.107-7.895-41.577-42.352-46.749-55.916
			c27.629-19.43,63.063-57.108,80.766-99.066c12.295-29.144,16.5-59.574,17.923-78.489c50.235,13.986,51.076,49.009,51.688,74.728
			l0.02,0.845C640.516,497.517,633.858,527.598,621.737,558.722z"/>
		<circle cx="255" cy="500.5" r="11.5"/>
		<path d="M305,329.5c-15.188,0-27.5,31.228-27.5,69.75c0,38.521,12.312,69.75,27.5,69.75s27.5-31.229,27.5-69.75
			C332.5,360.728,320.188,329.5,305,329.5z M306,405c-8.285,0-15-13.625-15-30.434c0-16.808,6.715-30.433,15-30.433
			s15,13.625,15,30.433C321,391.375,314.285,405,306,405z"/>
		<path d="M207.825,329.492c-15.745,0.269-27.978,31.71-27.322,70.226c0.656,38.517,13.953,69.523,29.697,69.255
			c15.746-0.267,27.978-31.71,27.321-70.227C236.866,360.23,223.569,329.225,207.825,329.492z M224.09,374.685
			c-0.392,16.804-7.423,30.269-15.706,30.075c-8.283-0.193-14.678-13.972-14.286-30.775c0.392-16.803,7.423-30.268,15.706-30.074
			C218.086,344.103,224.482,357.881,224.09,374.685z"/>
	</g>
	
		<ellipse transform="matrix(0.0233 -0.9997 0.9997 0.0233 -170.0149 574.6429)" fill="#FFFFFF" cx="209.094" cy="374.335" rx="30.433" ry="15"/>
	<ellipse fill="#FFFFFF" cx="306" cy="374.567" rx="15" ry="30.433"/>
</g>
</svg>
