<?xml version="1.0" encoding="utf-8"?>
<!-- Generator: Adobe Illustrator 16.0.0, SVG Export Plug-In . SVG Version: 6.00 Build 0)  -->
<!DOCTYPE svg PUBLIC "-//W3C//DTD SVG 1.1//EN" "http://www.w3.org/Graphics/SVG/1.1/DTD/svg11.dtd">
<svg version="1.1" id="Layer_1" xmlns="http://www.w3.org/2000/svg" xmlns:xlink="http://www.w3.org/1999/xlink" x="0px" y="0px"
	 width="200px" height="200.16px" viewBox="0 0 200 200.16" enable-background="new 0 0 200 200.16" xml:space="preserve">
<g>
	<g>
		<path fill="#2D81C2" d="M99.43,166.802c-6.962,7.038-18.417,7.101-25.456,0.139l-45.501-45.008
			c-7.038-6.962-7.101-18.417-0.139-25.455l54.853-55.455c6.962-7.038,18.417-7.101,25.455-0.139l45.501,45.008
			c7.038,6.962,7.101,18.417,0.139,25.455L99.43,166.802z"/>
		<path fill="none" stroke="#000000" stroke-width="11" stroke-miterlimit="10" d="M99.43,166.802
			c-6.962,7.038-18.417,7.101-25.456,0.139l-45.501-45.008c-7.038-6.962-7.101-18.417-0.139-25.455l54.853-55.455
			c6.962-7.038,18.417-7.101,25.455-0.139l45.501,45.008c7.038,6.962,7.101,18.417,0.139,25.455L99.43,166.802z"/>
	</g>
	<polyline fill="none" stroke="#000000" stroke-width="11" stroke-miterlimit="10" points="83.539,40.667 95.846,28.226 
		155.676,87.407 166.94,98.55 154.634,110.991 	"/>
	<circle cx="112.934" cy="82.05" r="16"/>
	<path fill="none" stroke="#000000" stroke-width="11" stroke-miterlimit="10" d="M101.994,88.081c0,0-63.063,38.921-70.106-20.792
		c-3.746-31.759,50.407-27.853,50.42-25.378"/>
</g>
<g>
	<path d="M152.461,69.598c-0.003,0.002-0.008-0.004,0.176-0.106c0.09-0.057,0.225-0.14,0.402-0.25
		c0.3-0.194,0.692-0.438,1.185-0.722c0.985-0.564,2.368-1.288,4.252-1.963c1.879-0.688,4.272-1.307,7.258-1.563
		c2.97-0.267,6.6,0.084,10.422,1.451c3.808,1.331,7.807,3.517,11.172,6.417c1.68,1.449,3.148,3.113,4.318,4.898
		c1.176,1.784,2.101,3.647,2.887,5.489c1.579,3.693,2.462,7.397,3.008,10.987c0.51,3.601,0.682,7.112,0.595,10.52
		c-0.03,1.708-0.126,3.383-0.246,5.034l-0.043,0.619c-0.003-0.016,0.012,0.285,0.005,0.175l-0.003,0.035l-0.006,0.07l-0.011,0.142
		l-0.021,0.281l-0.085,1.127c-0.057,0.751-0.112,1.499-0.168,2.244c-0.23,2.98-0.456,5.914-0.675,8.752
		c-0.238,2.84-0.44,5.584-0.688,8.188c-0.236,2.604-0.459,5.065-0.665,7.338c-0.391,4.544-0.814,8.335-1.077,10.987
		c-0.291,2.653-0.457,4.17-0.457,4.17c-0.213,1.944-1.962,3.349-3.907,3.136c-1.567-0.171-2.783-1.346-3.085-2.812
		c0,0-0.306-1.494-0.841-4.109c-0.507-2.616-1.281-6.352-2.091-10.84c-0.415-2.243-0.865-4.674-1.342-7.245
		c-0.487-2.57-0.943-5.283-1.442-8.088c-0.481-2.807-0.978-5.706-1.482-8.653c-0.125-0.736-0.25-1.476-0.376-2.218l-0.188-1.114
		l-0.048-0.279l-0.023-0.14l-0.012-0.069l-0.006-0.035c-0.009-0.134,0.006,0.144,0.001,0.104l-0.124-0.503
		c-0.325-1.343-0.669-2.672-1.061-3.957c-0.383-1.294-0.797-2.538-1.212-3.75c-0.432-1.194-0.904-2.35-1.368-3.422
		c-0.926-2.155-1.989-3.994-2.984-5.335c-0.499-0.674-1.019-1.195-1.455-1.602c-0.44-0.406-0.751-0.737-0.989-1.028
		c-0.46-0.6-0.858-0.827-1.381-0.795c-0.506,0.029-1.073,0.085-1.764-0.035c-0.688-0.104-1.46-0.123-2.135-0.165
		c-0.672-0.023-1.243-0.041-1.57-0.086c-0.164-0.021-0.269-0.05-0.301-0.094c-0.012-0.022-0.029-0.034,0.027-0.075
		c0.1-0.062,0.053-0.048,0.05-0.046c-5.817,2.879-12.866,0.497-15.745-5.319S146.645,72.477,152.461,69.598z"/>
</g>
</svg>
