<?xml version="1.0" encoding="utf-8"?>
<!-- Generator: Adobe Illustrator 16.0.0, SVG Export Plug-In . SVG Version: 6.00 Build 0)  -->
<!DOCTYPE svg PUBLIC "-//W3C//DTD SVG 1.1//EN" "http://www.w3.org/Graphics/SVG/1.1/DTD/svg11.dtd">
<svg version="1.1" id="Layer_1" xmlns="http://www.w3.org/2000/svg" xmlns:xlink="http://www.w3.org/1999/xlink" x="0px" y="0px"
	 width="714px" height="876px" viewBox="0 0 714 876" enable-background="new 0 0 714 876" xml:space="preserve">
<g id="_x33_AwSiR.tif" display="none">
	
		<image display="inline" overflow="visible" width="863" height="1219" id="Layer_0_1_" xlink:href="2A841725E461C6E1.png"  transform="matrix(1 0 0 1 -81 -176)">
	</image>
</g>
<g>
	<path fill="#FFFFFF" d="M444.653,457.984c-11.679,16.992-24.065,42.727-30.665,79.96c-0.338,1.902-2.092,3.163-3.995,2.835
		c-1.903-0.338-3.141-2.154-2.804-4.058c6.413-36.177,18.321-61.942,29.869-79.616c-12.497-2.188-34.859-9.716-38.531-35.614
		c-1.39-9.795-2.066-20.438,6.001-33.346c7.12-11.393,15.697-15.04,23.146-17.104c8.295-2.298,17.062-0.667,23.653,1.474
		c-3.408-6.206-7.389-14.761-12.104-27.281c-2.768-7.349-4.506-14.87-6.188-22.143c-2.153-9.317-4.188-18.117-8.164-26.018
		c-12.012-23.872-27.082-41.564-27.232-41.74c-1.258-1.467-1.089-3.677,0.378-4.935s3.675-1.089,4.935,0.377
		c0.308,0.358,3.99,4.681,9.109,11.82c35.988-11.822,82.747-30.715,127.152-59.207c14.831-22.086,26.604-68.267,29.793-81.585
		c-15.845,2.31-31.644,5.701-47.321,10.175c-30.607,8.736-60.829,21.579-89.827,38.172c-49.45,28.296-78.557,58.088-78.845,58.386
		l-1.341,1.385l-1.888-0.393c-65.838-13.718-119.146,2.983-152.271,19.408c-36.008,17.854-56.677,39.266-56.881,39.48
		c-0.688,0.72-1.609,1.083-2.532,1.083c-0.868,0-1.738-0.321-2.416-0.967c-1.398-1.334-1.451-3.547-0.118-4.946
		c0.388-0.408,4.806-4.989,12.91-11.576c-1.58-28.133-15.445-86.2-35.404-148.215c-5.254-16.327-10.142-30.503-14.617-42.703
		c-24.493,20.985-45.72,85.986-52.297,107.724c2.973,15.231,7.092,30.763,12.349,46.518c17.335,51.954,42.211,91.489,49.949,103.122
		c3.701-17.047,9.193-30.692,9.636-31.777c0.729-1.79,2.77-2.648,4.562-1.919c1.79,0.729,2.649,2.772,1.92,4.562
		c-0.202,0.494-20.001,49.71-9.319,76.803c6.235,15.813,6.886,50.354,6.911,51.817l0.002,0.154l-0.011,0.155
		c-0.01,0.138-0.496,7.181-0.31,16.001c5.855-6.768,15.919-14.419,31.519-14.419c10.444,0,15.283,2.435,23.68,9.29
		c9.751,7.962,16.085,19.759,16.943,31.557c0.665,9.146-3.344,18.266-4.589,20.843c-0.157,0.323-0.316,0.683-0.489,1.069
		c-2.282,5.105-6.786,15.146-28.399,18.534c24.944,20.383,58.834,39.029,88.436,39.033c2.179,0.001,4.326-0.1,6.453-0.309
		c1.923-0.193,3.636,1.218,3.825,3.142s-1.218,3.637-3.142,3.825c-2.415,0.236-4.842,0.349-7.267,0.35
		c-31.125,0.001-62.414-18.508-78.99-30.13c-13.304-9.328-25.453-20.002-34.683-30.134c-27.241,14.421-73.203,78.771-88.531,100.233
		c-5.023,7.034-5.482,7.646-6.13,8.184c-2.183,1.809-5.541,2.679-9.097,3.601c-2.071,0.537-6.231,1.616-7.277,2.616
		c0.529,1.551,3.52,5.12,6.639,7.866l3.396,2.989l-3.747,2.538c-2,1.354-4.034,3.014-5.412,4.358
		c1.987-0.129,4.702-0.559,7.152-1.182l7.873-2l-3.954,7.097c-2.002,3.595-3.689,7.826-3.99,9.845
		c1.722,0.126,5.146-0.257,8.135-0.956l5.112-1.196l-0.861,5.18c-0.676,4.06-0.838,8.618-0.435,10.591
		c1.961-0.564,6.007-2.89,9.357-5.448l1.008-0.77l1.269,0.054c0.909,0.038,91.445,3.688,129.979-18.535
		c1.674-0.967,3.815-0.392,4.78,1.283c0.966,1.675,0.391,3.815-1.283,4.781c-16.215,9.352-42.184,15.469-77.225,18.206
		c-0.315,8.524,0.336,34.372,17.92,53.032c14.833,15.741,38.155,22.888,69.325,21.234c32.92-1.742,58.723,9.563,81.487,19.539
		c2.625,1.15,5.231,2.292,7.826,3.406c44.589,19.142,76.483,40.087,76.8,40.296l0.296,0.195l0.25,0.251
		c0.865,0.847,21.886,20.716,58.79-6.349c32.648-23.942,52.148-50.252,61.369-82.799c7.563-26.696,22.477-79.357,21.983-116.362
		c-9.965,13.366-21.29,23.39-33.946,29.974c-0.516,0.269-1.068,0.396-1.612,0.396c-1.264,0-2.484-0.687-3.107-1.886
		c-0.893-1.715-0.226-3.828,1.489-4.72c14.824-7.713,26.79-20.357,36.442-35.25c-0.008-0.063-0.013-0.131-0.021-0.194l0.161-0.021
		c14.697-22.763,24-50.746,29.763-74.498c10.471-43.154,11.87-82.134,11.883-82.522c0.021-0.608,0.199-1.202,0.518-1.72
		c1.354-2.2,2.595-4.82,3.082-6.402c-1.911-0.119-5.575,0.305-8.795,1.066c-1.296,0.308-2.655-0.15-3.504-1.177
		s-1.041-2.447-0.496-3.662c1.554-3.464,2.859-7.414,3.278-9.715c-2.532,0.546-6.938,1.942-11.15,3.579
		c-1.035,0.401-2.195,0.291-3.135-0.302c-0.938-0.591-1.541-1.593-1.624-2.698c-0.287-3.812-1.104-7.988-1.862-9.809
		c-1.924,0.786-5.702,3.141-8.992,5.659c-0.877,0.67-2.02,0.887-3.081,0.587c-1.062-0.301-1.92-1.086-2.315-2.117
		c-1.145-2.989-2.826-6.168-3.919-7.512c-1.962,1.766-5.562,7.893-8.114,13.955c-0.472,1.12-1.491,1.915-2.693,2.1
		c-1.205,0.188-2.413-0.267-3.2-1.193c-1.814-2.136-4.07-4.324-5.45-5.345c-1.324,2.309-2.829,8.627-3.396,14.636
		c-0.118,1.258-0.906,2.355-2.061,2.869c-0.122,0.055-13.327,6.016-28.095,23.084c-2.773,3.205-4.996,6.957-8.996,11.282V458
		C445,458,445.014,457.998,444.653,457.984z M286.733,383.25c1.469,0.808-2.057,7.725-4.108,8.5
		c-2.183,0.825-8.749-2.938-8.75-4.671C273.874,385.579,284.233,381.875,286.733,383.25z M174.667,420.694
		c-15.832,0-28.667-12.835-28.667-28.667c0-15.833,12.835-28.667,28.667-28.667s28.667,12.834,28.667,28.667
		C203.334,407.859,190.499,420.694,174.667,420.694z M353.84,407.046c-1.081,3.449-4.187,6.09-9.485,7.979
		c-0.041,6.615-0.388,24.945-2.828,44.298c-4.187,33.214-12.354,53.555-24.273,60.456c-3.208,1.857-6.577,2.788-10.069,2.788
		c-2.413,0-4.884-0.444-7.405-1.333c-27.565-9.721-53.995-72.946-58.807-84.973c-8.804-1.438-13.22-6.186-13.593-6.607
		c-1.282-1.447-1.148-3.659,0.299-4.94c1.439-1.274,3.633-1.148,4.917,0.273c0.684,0.735,15.992,16.309,51.829-13.559l1.114-0.929
		l1.445,0.132c30.774,2.807,58.331,0.209,60.175-5.677c0.578-1.845,2.543-2.873,4.386-2.293
		C353.392,403.238,354.418,405.202,353.84,407.046z M376.667,365.694c-15.832,0-28.667-12.835-28.667-28.667
		c0-15.833,12.835-28.667,28.667-28.667s28.667,12.834,28.667,28.667C405.334,352.859,392.499,365.694,376.667,365.694z"/>
	<path fill="#FFFFFF" d="M473.727,394.238c3.172,7.552,2.354,17.44,1.066,24.544c1.02-0.614,1.903-1.115,2.593-1.485
		c0.815-7.034,2.871-17.175,7.984-19.215c1.062-0.421,3.586-1.428,9.272,4.02c3.444-7.076,7.932-13.738,12.614-13.738
		c0.09,0,0.179,0.002,0.268,0.007c2.86,0.156,5.597,2.916,8.161,8.22c5.291-3.615,9.196-5.165,11.624-4.609
		c4.105,0.936,5.701,7.065,6.378,11.833c10.839-3.795,12.943-2.61,13.901-2.069c1.223,0.691,4.594,2.596,0.989,13.21
		c5.226-0.544,8.665,0.287,10.259,2.493c1.913,2.649,0.945,7.246-2.877,13.671c-0.154,3.411-0.831,15.941-3.007,33.162
		c49.211-21.313,124.899-61.288,137.17-67.802c2.532-39.417-16.474-115.319-42.295-168.978
		c-16.493,6.428-100.715,41.705-197.759,126.073c7.386,17.54,12.541,24.118,16.469,29.13
		C469.251,386.168,471.594,389.156,473.727,394.238z"/>
	<path fill="#FFFFFF" d="M368.019,854.827c0.082,0.102,0.158,0.184,0.227,0.249c0.254-0.559,0.471-1.38,0.648-2.408
		c-0.229-1.891-0.327-3.805-0.374-5.561c-0.178-6.641,0.47-12.862,0.497-13.131c0.184-1.786,1.688-2.977,3.481-2.977
		c0.004,0,0.007,0,0.011,0c1.799,0,3.301,1.208,3.473,2.998c0.407,4.22,0.956,12.273-0.026,18.71
		c0.271,1.965,0.645,3.394,1.083,4.19c0.62-0.633,1.348-1.862,2.111-3.468c1.008-6.024,3.963-13.025,5.155-15.684
		c0.735-1.641,2.596-2.46,4.298-1.896c1.705,0.567,2.704,2.332,2.311,4.086c-0.054,0.238-1.333,5.901-3.393,11.545
		c-0.241,0.662-0.501,1.348-0.779,2.042c4.931-7.134,13.155-22.667,20.615-38.245c-6.027,2.229-12.518,3.682-19.232,3.682
		c-2.903,0-5.846-0.27-8.811-0.862c-4.711-0.942-8.562-2.527-11.512-4.105C365.438,829.258,364.111,849.97,368.019,854.827z"/>
	<path fill="#FFFFFF" d="M467.273,396.948c-1.77-4.213-3.646-6.608-6.244-9.922c-0.996-1.271-2.069-2.642-3.227-4.234
		c-3.031-1.591-16.685-8.213-28.257-5.004c-6.461,1.791-13.244,4.734-19.078,14.068c-6.824,10.919-6.261,19.784-5.003,28.654
		c1.773,12.504,8.905,21.415,21.196,26.484c5.681,2.343,11.228,3.312,14.819,3.716c2.686-3.695,5.312-6.965,7.798-9.818
		c6.205-7.12,12.079-12.391,16.961-16.188C467.368,420.745,471.1,406.062,467.273,396.948z"/>
	<path fill="#FFFFFF" d="M292.941,438.627c-18.076,3.906-29.65,17.647-33.133,22.314c10.781,21.597,26.782,48.22,42.302,53.692
		c4.208,1.484,8.015,1.186,11.636-0.913c13.232-7.662,19.381-38.491,21.969-65.604C320.859,438.908,306.477,435.703,292.941,438.627
		z"/>
	<path fill="#FFFFFF" d="M79.729,721.636c1.381-0.436,3.624-1.737,6.203-3.547c3.037-2.93,6.536-5.606,9.383-7.615
		c1.506-1.063,3.576-0.776,4.736,0.655c1.161,1.431,1.013,3.516-0.337,4.77c-2.032,1.887-5.438,4.898-9.139,7.536
		c-2.477,2.403-4.227,4.539-4.635,5.793c1.43,0.306,4.966-0.297,9.698-1.874c3.842-2.054,8.166-3.696,11.586-4.84
		c1.744-0.585,3.641,0.283,4.343,1.981c0.703,1.698-0.028,3.651-1.673,4.471c-3.262,1.625-7.357,3.49-11.5,4.924
		c-1.752,0.948-3.188,1.864-4.128,2.652c5.486-0.079,19.348-3.606,34.3-8.753c-1.341-1.209-2.648-2.453-3.887-3.771
		c-7.567-8.048-12.293-17.144-15.233-25.825C97.728,704.631,81.236,715.843,79.729,721.636z"/>
	<path fill="#FFFFFF" d="M291.462,431.785c14.427-3.118,29.512-0.218,44.907,8.576c0.659-8.934,0.942-17.124,0.99-23.508
		c-5.395,1.023-12.127,1.614-20.294,1.791c-12.847,0.273-25.137-0.588-29.271-0.919c-16.564,13.541-29.518,18.179-39.114,18.864
		c1.655,3.978,4.315,10.156,7.726,17.355C261.983,447.26,273.893,435.581,291.462,431.785z"/>
	<path fill="#FFFFFF" d="M519,601.111v-13.035l19.166,10.558l-9.167-12.523l45.386-41.944l-28.116-40.314
		c-0.721,3.353-1.489,6.745-2.318,10.166c-7.425,30.646-17.289,55.732-29.488,75.141c0.27,2.879,0.424,5.881,0.473,8.984
		L519,601.111z"/>
	<path fill="#FFFFFF" d="M526,614.889l-11.179-8.161c-0.468,11.936-2.168,24.944-4.507,37.952l34.267-34.521L526,599.924V614.889z"
		/>
	<path fill="#FFFFFF" d="M182.522,499.736c0.203-0.455,0.392-0.877,0.576-1.258c0.75-1.554,4.464-9.686,3.911-17.291
		c-0.71-9.767-6.224-19.976-14.389-26.643c-7.433-6.068-10.666-7.712-19.252-7.712c-19.069,0-28.245,13.796-30.887,18.66
		c0.517,5.297,1.391,10.503,2.831,14.707c2.998,8.755,13.43,21.749,27.954,34.729C176.546,513.073,180.425,504.428,182.522,499.736z
		"/>
	<circle fill="#FFFFFF" cx="179.001" cy="379.667" r="13.333"/>
	<circle fill="#FFFFFF" cx="368.002" cy="329.667" r="13.333"/>
	<g>
		<path d="M351.546,402.66c-1.843-0.58-3.808,0.449-4.386,2.293c-1.845,5.887-29.401,8.484-60.175,5.677l-1.445-0.132l-1.114,0.929
			c-35.837,29.868-51.145,14.294-51.829,13.559c-1.284-1.421-3.478-1.547-4.917-0.273c-1.447,1.282-1.581,3.494-0.299,4.94
			c0.374,0.421,4.789,5.169,13.593,6.607c4.812,12.026,31.242,75.252,58.807,84.973c2.521,0.889,4.992,1.333,7.405,1.333
			c3.492,0,6.86-0.931,10.069-2.788c11.919-6.901,20.086-27.242,24.273-60.456c2.44-19.353,2.787-37.683,2.828-44.298
			c5.298-1.889,8.404-4.53,9.485-7.979C354.418,405.202,353.392,403.238,351.546,402.66z M313.746,513.721
			c-3.622,2.099-7.428,2.397-11.636,0.913c-15.52-5.473-31.521-32.096-42.302-53.692c3.483-4.667,15.057-18.408,33.133-22.314
			c13.536-2.924,27.918,0.281,42.774,9.489C333.127,475.229,326.979,506.059,313.746,513.721z M336.37,440.361
			c-15.396-8.794-30.48-11.694-44.907-8.576c-17.569,3.796-29.479,15.475-35.056,22.158c-3.411-7.199-6.071-13.378-7.726-17.355
			c9.596-0.685,22.549-5.323,39.114-18.864c4.135,0.332,16.425,1.193,29.271,0.919c8.167-0.177,14.9-0.767,20.294-1.791
			C337.312,423.237,337.029,431.428,336.37,440.361z"/>
		<path d="M282.625,391.75c2.051-0.775,5.577-7.692,4.108-8.5c-2.5-1.375-12.859,2.329-12.858,3.829
			C273.876,388.812,280.442,392.575,282.625,391.75z"/>
		<path d="M652.715,221.553l-1.374-2.786l-2.929,1.033c-0.929,0.328-93.033,33.475-201.119,126.919
			c-0.497-1.273-1.002-2.583-1.518-3.953c-2.603-6.913-4.288-14.203-5.918-21.252c-2.152-9.31-4.378-18.936-8.73-27.587
			c-4.899-9.737-10.218-18.386-14.904-25.345c88.856-29.484,144.821-68.632,176.24-96.483c34.75-30.806,47.661-54.343,48.193-55.33
			l2.627-4.867l-5.523-0.291c-39.387-2.073-79.137,2.528-118.138,13.676c-31.175,8.911-61.94,22-91.445,38.904
			c-38.547,22.085-67.559,46.843-78.836,58.1c-67.059-13.45-121.343,3.668-155.192,20.5c-16.266,8.088-29.375,16.766-39.04,24.033
			c-3.235-36.164-20.921-100.391-35.672-146.108c-9.246-28.654-18.808-54.845-26.925-73.749
			C78.248,13.753,72.57,12.403,70.146,11.826c-2.678-0.639-5.176,0.557-6.684,3.192C43.655,49.651,33.545,88.656,33.414,130.948
			c-0.105,33.724,6.104,69.589,18.453,106.601c20.986,62.895,52.964,108.038,53.285,108.486l2.096-1.498
			c-2.679,14.878-3.533,31.403,1.496,44.155c5.577,14.146,6.369,46.744,6.42,49.22c-0.116,1.691-0.869,13.748,0.164,26.238
			c-0.049,0.109-0.088,0.197-0.105,0.237l0.131,0.056c0.54,6.352,1.543,12.794,3.334,18.024c1.865,5.447,5.999,12.016,11.765,19.028
			c-25.689,14.722-63.122,64.588-89.537,101.572c-2.36,3.305-4.419,6.188-5.054,6.978c-1.112,0.771-3.94,1.505-6.234,2.1
			c-5.214,1.352-10.607,2.75-12.242,7.132c-1.412,3.786,1.75,8.456,5.59,12.404c-5.491,4.364-7.566,8.14-6.172,11.25
			c1.222,2.726,4.584,3.817,10.03,3.272c-1.761,4.407-2.594,8.8-0.631,11.403c1.658,2.198,5.25,2.937,10.71,2.218
			c-0.478,5.593-0.002,11.198,3.279,13.174c0.873,0.525,1.879,0.757,2.976,0.757c3.986,0,9.166-3.062,13.439-6.213
			c5.085,0.167,24.886,0.665,48.246-0.806c-0.179,5.437,0.069,15.561,3.186,26.89l-1.102-2.04c-5.176,2.796-31.141,17.3-33.989,28.3
			c-0.592,2.286-0.286,4.464,0.886,6.296c0.913,1.427,2.373,2.335,4.111,2.557c0.32,0.041,0.65,0.059,0.995,0.044
			c-0.193,1.356-0.015,2.662,0.644,3.88c1.286,2.378,3.714,3.405,6.74,3.549c-0.222,0.84-0.268,1.706-0.102,2.595
			c0.281,1.512,1.212,2.787,2.621,3.59c1.065,0.606,2.562,1.095,5.233,1.095c4.007,0,10.653-1.1,22.434-4.546
			c7.808-2.283,15.233-4.854,18.508-6.013c15.912,11.092,37.532,15.986,64.497,14.562c31.261-1.653,55.179,8.824,78.308,18.96
			c2.642,1.157,5.263,2.307,7.874,3.427c41.928,18,72.432,37.578,75.459,39.546c0.071,0.065,0.163,0.146,0.258,0.23
			c-1.418,8.196-6.36,40.223,1.146,49.556c1.565,1.946,3.627,3.024,5.962,3.117c1.139,0.044,2.248-0.252,3.218-0.854
			c1.032,1.388,2.394,2.353,4.192,2.646c1.846,0.303,3.458-0.246,4.87-1.321c0.562,0.536,1.156,0.876,1.659,1.089
			c0.612,0.26,1.226,0.412,1.863,0.412c3.89,0,8.713-5.673,19.999-27.314c5.846-11.208,11.269-22.744,12.869-26.181
			c4.266-2.296,8.159-4.839,11.54-7.318c33.507-24.571,54.43-52.877,63.965-86.535c4.117-14.53,10.377-36.645,15.212-59.917
			l47.011-47.359l-16.589-22.662l45.282-41.849l-35.424-50.792c1.482-7.74,2.691-15.149,3.672-22.007
			c53.377-22.686,142.352-70.132,143.254-70.614l1.679-0.896l0.16-1.896C700.747,354.188,677.141,271.082,652.715,221.553z
			 M125.311,480.2c-1.44-4.204-2.314-9.41-2.831-14.707c2.643-4.864,11.818-18.66,30.887-18.66c8.586,0,11.82,1.644,19.252,7.712
			c8.165,6.667,13.679,16.876,14.389,26.643c0.553,7.605-3.161,15.737-3.911,17.291c-0.184,0.381-0.373,0.803-0.576,1.258
			c-2.097,4.691-5.976,13.337-29.257,15.193C138.741,501.949,128.309,488.955,125.311,480.2z M94.267,736.542
			c0.941-0.788,2.376-1.704,4.128-2.652c4.142-1.434,8.238-3.299,11.5-4.924c1.646-0.819,2.376-2.772,1.673-4.471
			c-0.703-1.698-2.6-2.566-4.343-1.981c-3.42,1.144-7.744,2.786-11.586,4.84c-4.732,1.577-8.268,2.18-9.698,1.874
			c0.409-1.254,2.159-3.39,4.635-5.793c3.701-2.638,7.107-5.649,9.139-7.536c1.35-1.254,1.498-3.339,0.337-4.77
			c-1.161-1.432-3.23-1.719-4.736-0.655c-2.847,2.009-6.346,4.686-9.383,7.615c-2.579,1.81-4.822,3.111-6.203,3.547
			c1.507-5.793,17.998-17.005,29.717-23.442c2.94,8.682,7.666,17.777,15.233,25.825c1.239,1.317,2.546,2.562,3.887,3.771
			C113.615,732.936,99.753,736.463,94.267,736.542z M386.741,853.524c0.278-0.694,0.538-1.38,0.779-2.042
			c2.06-5.644,3.339-11.307,3.393-11.545c0.394-1.754-0.605-3.519-2.311-4.086c-1.702-0.564-3.562,0.255-4.298,1.896
			c-1.192,2.658-4.147,9.659-5.155,15.684c-0.764,1.605-1.491,2.835-2.111,3.468c-0.438-0.797-0.812-2.226-1.083-4.19
			c0.982-6.437,0.434-14.49,0.026-18.71c-0.172-1.79-1.674-2.998-3.473-2.998c-0.004,0-0.007,0-0.011,0
			c-1.794,0-3.298,1.19-3.481,2.977c-0.027,0.269-0.675,6.49-0.497,13.131c0.047,1.756,0.146,3.67,0.374,5.561
			c-0.178,1.028-0.395,1.85-0.648,2.408c-0.068-0.065-0.145-0.147-0.227-0.249c-3.907-4.857-2.581-25.569-0.217-40.834
			c2.95,1.578,6.801,3.163,11.512,4.105c2.965,0.593,5.907,0.862,8.811,0.862c6.715,0,13.205-1.453,19.232-3.682
			C399.896,830.857,391.672,846.391,386.741,853.524z M485.967,715.045c-9.221,32.547-28.721,58.856-61.369,82.799
			c-36.904,27.064-57.925,7.195-58.79,6.349l-0.25-0.251l-0.296-0.195c-0.316-0.209-32.211-21.154-76.8-40.296
			c-2.595-1.114-5.201-2.256-7.826-3.406c-22.765-9.976-48.567-21.281-81.487-19.539c-31.169,1.653-54.492-5.493-69.325-21.234
			c-17.584-18.66-18.236-44.508-17.92-53.032c35.041-2.737,61.01-8.854,77.225-18.206c1.674-0.966,2.249-3.106,1.283-4.781
			c-0.965-1.675-3.106-2.25-4.78-1.283c-38.534,22.224-129.07,18.573-129.979,18.535l-1.269-0.054l-1.008,0.77
			c-3.351,2.559-7.396,4.884-9.357,5.448c-0.403-1.973-0.241-6.531,0.435-10.591l0.861-5.18l-5.112,1.196
			c-2.989,0.699-6.413,1.082-8.135,0.956c0.301-2.019,1.988-6.25,3.99-9.845l3.954-7.097l-7.873,2
			c-2.45,0.623-5.165,1.053-7.152,1.182c1.378-1.345,3.412-3.005,5.412-4.358l3.747-2.538l-3.396-2.989
			c-3.119-2.746-6.11-6.315-6.639-7.866c1.045-1,5.206-2.079,7.277-2.616c3.556-0.922,6.914-1.792,9.097-3.601
			c0.648-0.538,1.107-1.149,6.13-8.184c15.328-21.463,61.291-85.812,88.531-100.233c9.229,10.132,21.379,20.806,34.683,30.134
			c16.577,11.622,47.866,30.131,78.99,30.13c2.425-0.001,4.852-0.113,7.267-0.35c1.924-0.188,3.331-1.901,3.142-3.825
			s-1.902-3.335-3.825-3.142c-2.127,0.209-4.274,0.31-6.453,0.309c-29.601-0.004-63.492-18.65-88.436-39.033
			c21.613-3.389,26.117-13.429,28.399-18.534c0.173-0.387,0.333-0.746,0.489-1.069c1.245-2.577,5.254-11.696,4.589-20.843
			c-0.858-11.798-7.192-23.595-16.943-31.557c-8.396-6.855-13.236-9.29-23.68-9.29c-15.6,0-25.664,7.651-31.519,14.419
			c-0.186-8.82,0.3-15.863,0.31-16.001l0.011-0.155l-0.002-0.154c-0.024-1.463-0.675-36.003-6.911-51.817
			c-10.683-27.093,9.117-76.309,9.319-76.803c0.729-1.79-0.13-3.833-1.92-4.562c-1.792-0.729-3.833,0.129-4.562,1.919
			c-0.442,1.084-5.935,14.73-9.636,31.777c-7.738-11.633-32.614-51.168-49.949-103.122c-5.257-15.754-9.375-31.286-12.349-46.518
			c6.577-21.738,27.804-86.739,52.297-107.724c4.476,12.199,9.363,26.376,14.617,42.703
			c19.959,62.016,33.824,120.083,35.404,148.215c-8.104,6.587-12.521,11.168-12.91,11.576c-1.333,1.399-1.28,3.612,0.118,4.946
			c0.678,0.646,1.547,0.967,2.416,0.967c0.923,0,1.845-0.363,2.532-1.083c0.205-0.214,20.874-21.626,56.881-39.48
			c33.125-16.425,86.433-33.126,152.271-19.408l1.888,0.393l1.341-1.385c0.288-0.297,29.395-30.089,78.845-58.386
			c28.998-16.593,59.22-29.436,89.827-38.172c15.678-4.475,31.477-7.866,47.321-10.175c-3.188,13.318-14.962,59.499-29.793,81.585
			c-44.405,28.492-91.164,47.385-127.152,59.207c-5.119-7.139-8.802-11.461-9.109-11.82c-1.26-1.466-3.468-1.635-4.935-0.377
			s-1.636,3.468-0.378,4.935c0.15,0.176,15.221,17.869,27.232,41.74c3.976,7.9,6.011,16.701,8.164,26.018
			c1.682,7.273,3.42,14.793,6.188,22.143c4.715,12.521,8.696,21.076,12.104,27.281c-6.592-2.142-15.357-3.772-23.652-1.474
			c-7.449,2.065-16.024,5.711-23.145,17.104c-8.067,12.908-7.387,23.551-5.997,33.346c3.672,25.898,26.042,33.427,38.539,35.614
			c-11.548,17.674-23.44,43.439-29.854,79.616c-0.337,1.903,0.932,3.72,2.835,4.058c1.903,0.328,3.72-0.933,4.058-2.835
			c6.6-37.233,18.861-62.968,30.54-79.96C445.014,457.998,445,458,445,458v-0.873c4-4.325,6.223-8.077,8.996-11.282
			c14.768-17.068,27.848-23.029,27.97-23.084c1.154-0.514,2.005-1.611,2.123-2.869c0.567-6.009,2.104-12.327,3.428-14.636
			c1.38,1.021,3.651,3.209,5.466,5.345c0.787,0.926,2.003,1.381,3.208,1.193c1.202-0.185,2.226-0.98,2.697-2.1
			c2.553-6.062,6.154-12.189,8.116-13.955c1.093,1.343,2.775,4.523,3.92,7.512c0.396,1.031,1.254,1.816,2.316,2.117
			c1.061,0.3,2.204,0.083,3.081-0.587c3.29-2.518,7.068-4.873,8.992-5.659c0.759,1.821,1.575,5.997,1.862,9.809
			c0.083,1.105,0.686,2.107,1.624,2.698c0.939,0.593,2.1,0.704,3.135,0.302c4.212-1.637,8.618-3.033,11.15-3.579
			c-0.419,2.301-1.725,6.251-3.278,9.715c-0.545,1.215-0.353,2.635,0.496,3.662s2.208,1.484,3.504,1.177
			c3.22-0.761,6.884-1.185,8.795-1.066c-0.487,1.582-1.729,4.203-3.082,6.402c-0.318,0.518-0.497,1.112-0.518,1.72
			c-0.013,0.389-1.412,39.368-11.883,82.522c-5.763,23.752-15.065,51.735-29.763,74.498l-0.161,0.021
			c0.008,0.063,0.013,0.131,0.021,0.194c-9.652,14.893-21.618,27.537-36.442,35.25c-1.715,0.892-2.382,3.005-1.489,4.72
			c0.623,1.199,1.844,1.886,3.107,1.886c0.544,0,1.097-0.128,1.612-0.396c12.656-6.584,23.981-16.607,33.946-29.974
			C508.443,635.688,493.53,688.349,485.967,715.045z M466.239,424.703c-4.882,3.797-10.756,9.068-16.961,16.188
			c-2.486,2.854-5.112,6.123-7.798,9.818c-3.592-0.404-9.139-1.373-14.819-3.716c-12.291-5.069-19.423-13.98-21.196-26.484
			c-1.258-8.87-1.821-17.735,5.003-28.654c5.834-9.334,12.617-12.278,19.078-14.068c11.572-3.208,25.226,3.414,28.257,5.004
			c1.157,1.593,2.23,2.963,3.227,4.234c2.598,3.314,4.475,5.709,6.244,9.922C471.1,406.062,467.368,420.745,466.239,424.703z
			 M510.314,644.68c2.339-13.008,4.039-26.017,4.507-37.952L526,614.889v-14.965l18.581,10.235L510.314,644.68z M574.385,544.166
			l-45.386,41.944l9.167,12.523L519,588.076v13.035l-4.065-2.969c-0.049-3.104-0.203-6.105-0.473-8.984
			c12.199-19.408,22.063-44.494,29.488-75.141c0.829-3.421,1.598-6.813,2.318-10.166L574.385,544.166z M690.123,396.481
			c-12.271,6.514-87.959,46.488-137.17,67.802c2.176-17.221,2.853-29.751,3.007-33.162c3.822-6.426,4.79-11.022,2.877-13.671
			c-1.594-2.206-5.033-3.038-10.259-2.493c3.604-10.614,0.233-12.519-0.989-13.21c-0.958-0.541-3.062-1.727-13.901,2.069
			c-0.677-4.768-2.272-10.897-6.378-11.833c-2.428-0.555-6.333,0.995-11.624,4.609c-2.564-5.304-5.301-8.064-8.161-8.22
			c-0.089-0.005-0.178-0.007-0.268-0.007c-4.683,0-9.17,6.662-12.614,13.738c-5.687-5.448-8.211-4.441-9.272-4.02
			c-5.113,2.04-7.169,12.181-7.984,19.215c-0.689,0.37-1.573,0.871-2.593,1.485c1.287-7.104,2.105-16.992-1.066-24.544
			c-2.133-5.082-4.476-8.07-7.188-11.531c-3.928-5.012-9.083-11.59-16.469-29.13c97.044-84.369,181.266-119.645,197.759-126.073
			C673.649,281.162,692.655,357.064,690.123,396.481z"/>
		<path d="M376.667,308.36c-15.832,0-28.667,12.834-28.667,28.667c0,15.832,12.835,28.667,28.667,28.667
			s28.667-12.835,28.667-28.667C405.334,321.195,392.499,308.36,376.667,308.36z M368.002,343c-7.364,0-13.334-5.969-13.334-13.333
			s5.97-13.333,13.334-13.333c7.363,0,13.332,5.969,13.332,13.333S375.365,343,368.002,343z"/>
		<path d="M174.667,363.36c-15.832,0-28.667,12.834-28.667,28.667c0,15.832,12.835,28.667,28.667,28.667
			s28.667-12.835,28.667-28.667C203.334,376.195,190.499,363.36,174.667,363.36z M179.001,393c-7.364,0-13.333-5.969-13.333-13.333
			s5.969-13.333,13.333-13.333s13.333,5.969,13.333,13.333S186.365,393,179.001,393z"/>
	</g>
</g>
</svg>
